<svg xmlns="http://www.w3.org/2000/svg" viewBox="0 0 80 80">
  <!-- Stem -->
  <line x1="40" y1="38" x2="40" y2="78" stroke="#4CAF50" stroke-width="4"/>
  <!-- Leaves -->
  <ellipse cx="30" cy="55" rx="10" ry="5" fill="#66BB6A" transform="rotate(-30,30,55)"/>
  <ellipse cx="50" cy="62" rx="10" ry="5" fill="#66BB6A" transform="rotate(25,50,62)"/>
  <!-- Petals (outer ring) -->
  <ellipse cx="40" cy="10" rx="4" ry="10" fill="#FDD835"/>
  <ellipse cx="40" cy="46" rx="4" ry="10" fill="#FDD835"/>
  <ellipse cx="18" cy="28" rx="10" ry="4" fill="#FDD835"/>
  <ellipse cx="62" cy="28" rx="10" ry="4" fill="#FDD835"/>
  <ellipse cx="24" cy="14" rx="4" ry="10" fill="#FFEB3B" transform="rotate(45,24,14)"/>
  <ellipse cx="56" cy="14" rx="4" ry="10" fill="#FFEB3B" transform="rotate(-45,56,14)"/>
  <ellipse cx="24" cy="42" rx="4" ry="10" fill="#FFEB3B" transform="rotate(-45,24,42)"/>
  <ellipse cx="56" cy="42" rx="4" ry="10" fill="#FFEB3B" transform="rotate(45,56,42)"/>
  <!-- More petals between -->
  <ellipse cx="30" cy="8" rx="3" ry="8" fill="#FBC02D" transform="rotate(22,30,8)"/>
  <ellipse cx="50" cy="8" rx="3" ry="8" fill="#FBC02D" transform="rotate(-22,50,8)"/>
  <ellipse cx="18" cy="18" rx="3" ry="8" fill="#FBC02D" transform="rotate(68,18,18)"/>
  <ellipse cx="62" cy="18" rx="3" ry="8" fill="#FBC02D" transform="rotate(-68,62,18)"/>
  <ellipse cx="18" cy="38" rx="3" ry="8" fill="#FBC02D" transform="rotate(-68,18,38)"/>
  <ellipse cx="62" cy="38" rx="3" ry="8" fill="#FBC02D" transform="rotate(68,62,38)"/>
  <ellipse cx="30" cy="46" rx="3" ry="8" fill="#FBC02D" transform="rotate(-22,30,46)"/>
  <ellipse cx="50" cy="46" rx="3" ry="8" fill="#FBC02D" transform="rotate(22,50,46)"/>
  <!-- Center -->
  <circle cx="40" cy="28" r="12" fill="#795548"/>
  <circle cx="40" cy="28" r="10" fill="#6D4C41"/>
  <!-- Center seeds pattern -->
  <circle cx="37" cy="25" r="1" fill="#5D4037"/>
  <circle cx="43" cy="25" r="1" fill="#5D4037"/>
  <circle cx="40" cy="28" r="1" fill="#5D4037"/>
  <circle cx="37" cy="31" r="1" fill="#5D4037"/>
  <circle cx="43" cy="31" r="1" fill="#5D4037"/>
  <circle cx="40" cy="22" r="1" fill="#5D4037"/>
  <circle cx="40" cy="34" r="1" fill="#5D4037"/>
</svg>