<svg xmlns="http://www.w3.org/2000/svg" viewBox="0 0 80 80">
  <!-- Center stem -->
  <path d="M40 75 Q40 50 40 30" stroke="#4CAF50" stroke-width="3" fill="none"/>
  <!-- Left fronds -->
  <path d="M40 65 Q25 60 15 65" stroke="#66BB6A" stroke-width="2" fill="none"/>
  <path d="M40 58 Q22 50 10 55" stroke="#4CAF50" stroke-width="2" fill="none"/>
  <path d="M40 50 Q20 40 8 44" stroke="#66BB6A" stroke-width="2" fill="none"/>
  <path d="M40 42 Q22 32 12 34" stroke="#4CAF50" stroke-width="2" fill="none"/>
  <path d="M40 35 Q28 26 18 26" stroke="#66BB6A" stroke-width="2" fill="none"/>
  <!-- Right fronds -->
  <path d="M40 65 Q55 60 65 65" stroke="#66BB6A" stroke-width="2" fill="none"/>
  <path d="M40 58 Q58 50 70 55" stroke="#4CAF50" stroke-width="2" fill="none"/>
  <path d="M40 50 Q60 40 72 44" stroke="#66BB6A" stroke-width="2" fill="none"/>
  <path d="M40 42 Q58 32 68 34" stroke="#4CAF50" stroke-width="2" fill="none"/>
  <path d="M40 35 Q52 26 62 26" stroke="#66BB6A" stroke-width="2" fill="none"/>
  <!-- Leaflets on fronds (left) -->
  <ellipse cx="22" cy="58" rx="5" ry="3" fill="#66BB6A" transform="rotate(-15,22,58)"/>
  <ellipse cx="16" cy="48" rx="5" ry="3" fill="#4CAF50" transform="rotate(-20,16,48)"/>
  <ellipse cx="14" cy="38" rx="5" ry="3" fill="#66BB6A" transform="rotate(-25,14,38)"/>
  <ellipse cx="20" cy="30" rx="4" ry="3" fill="#4CAF50" transform="rotate(-15,20,30)"/>
  <!-- Leaflets on fronds (right) -->
  <ellipse cx="58" cy="58" rx="5" ry="3" fill="#66BB6A" transform="rotate(15,58,58)"/>
  <ellipse cx="64" cy="48" rx="5" ry="3" fill="#4CAF50" transform="rotate(20,64,48)"/>
  <ellipse cx="66" cy="38" rx="5" ry="3" fill="#66BB6A" transform="rotate(25,66,38)"/>
  <ellipse cx="60" cy="30" rx="4" ry="3" fill="#4CAF50" transform="rotate(15,60,30)"/>
  <!-- Curled top (fiddlehead) -->
  <path d="M40 30 Q40 20 44 16 Q48 14 46 18" stroke="#81C784" stroke-width="2.5" fill="none" stroke-linecap="round"/>
</svg>