<svg xmlns="http://www.w3.org/2000/svg" viewBox="0 0 60 70">
  <!-- Bag body -->
  <rect x="5" y="22" width="50" height="40" rx="6" fill="#e91e63"/>
  <!-- Flap -->
  <path d="M5 22 L5 35 Q30 45 55 35 L55 22Z" fill="#c2185b"/>
  <!-- Handle -->
  <path d="M18 22 Q18 8 30 5 Q42 8 42 22" fill="none" stroke="#c2185b" stroke-width="4"/>
  <!-- Clasp -->
  <circle cx="30" cy="38" r="5" fill="#ffd54f"/>
  <circle cx="30" cy="38" r="2.5" fill="#ffb300"/>
  <!-- Stitching -->
  <rect x="8" y="25" width="44" height="34" rx="4" fill="none" stroke="#f06292" stroke-width="1" stroke-dasharray="3,2"/>
  <!-- Heart decoration -->
  <path d="M20 50 Q20 46 23 46 Q26 46 26 50 Q26 54 23 57 Q20 54 20 50Z" fill="#f48fb1"/>
  <path d="M35 50 Q35 46 38 46 Q41 46 41 50 Q41 54 38 57 Q35 54 35 50Z" fill="#f48fb1"/>
</svg>