<svg xmlns="http://www.w3.org/2000/svg" viewBox="0 0 60 60">
  <!-- Brooch base -->
  <circle cx="30" cy="30" r="22" fill="#ffd54f"/>
  <circle cx="30" cy="30" r="19" fill="#fff9c4"/>
  <!-- Butterfly shape -->
  <!-- Left wing -->
  <path d="M30 28 Q18 15 15 25 Q12 35 30 32Z" fill="#e91e63"/>
  <path d="M30 32 Q18 35 15 40 Q18 48 30 36Z" fill="#f48fb1"/>
  <!-- Right wing -->
  <path d="M30 28 Q42 15 45 25 Q48 35 30 32Z" fill="#e91e63"/>
  <path d="M30 32 Q42 35 45 40 Q42 48 30 36Z" fill="#f48fb1"/>
  <!-- Body -->
  <ellipse cx="30" cy="32" rx="2" ry="6" fill="#333"/>
  <!-- Antennae -->
  <path d="M29 26 Q25 20 23 18" stroke="#333" stroke-width="1" fill="none"/>
  <path d="M31 26 Q35 20 37 18" stroke="#333" stroke-width="1" fill="none"/>
  <circle cx="23" cy="18" r="1.5" fill="#333"/>
  <circle cx="37" cy="18" r="1.5" fill="#333"/>
  <!-- Wing spots -->
  <circle cx="22" cy="26" r="2" fill="#fff9c4" opacity="0.6"/>
  <circle cx="38" cy="26" r="2" fill="#fff9c4" opacity="0.6"/>
  <!-- Pin on back (visible at bottom) -->
  <line x1="20" y1="52" x2="40" y2="52" stroke="#bdbdbd" stroke-width="1.5"/>
  <circle cx="40" cy="52" r="1.5" fill="#9e9e9e"/>
</svg>