<svg xmlns="http://www.w3.org/2000/svg" viewBox="0 0 60 60">
  <!-- Pearl necklace chain -->
  <path d="M10 15 Q10 5 20 5 Q30 2 40 5 Q50 5 50 15 Q52 30 45 40 Q38 48 30 50 Q22 48 15 40 Q8 30 10 15Z" fill="none" stroke="#e0e0e0" stroke-width="1"/>
  <!-- Pearls -->
  <circle cx="12" cy="15" r="4" fill="#fafafa" stroke="#e0e0e0" stroke-width="0.5"/>
  <circle cx="15" cy="8" r="4" fill="#fafafa" stroke="#e0e0e0" stroke-width="0.5"/>
  <circle cx="23" cy="4" r="4" fill="#fafafa" stroke="#e0e0e0" stroke-width="0.5"/>
  <circle cx="32" cy="3" r="4" fill="#fafafa" stroke="#e0e0e0" stroke-width="0.5"/>
  <circle cx="40" cy="5" r="4" fill="#fafafa" stroke="#e0e0e0" stroke-width="0.5"/>
  <circle cx="47" cy="10" r="4" fill="#fafafa" stroke="#e0e0e0" stroke-width="0.5"/>
  <circle cx="50" cy="18" r="4" fill="#fafafa" stroke="#e0e0e0" stroke-width="0.5"/>
  <circle cx="50" cy="27" r="4" fill="#fafafa" stroke="#e0e0e0" stroke-width="0.5"/>
  <circle cx="47" cy="35" r="4" fill="#fafafa" stroke="#e0e0e0" stroke-width="0.5"/>
  <circle cx="42" cy="42" r="4" fill="#fafafa" stroke="#e0e0e0" stroke-width="0.5"/>
  <circle cx="35" cy="47" r="4" fill="#fafafa" stroke="#e0e0e0" stroke-width="0.5"/>
  <circle cx="30" cy="50" r="5" fill="#f8bbd0" stroke="#e0e0e0" stroke-width="0.5"/>
  <circle cx="25" cy="47" r="4" fill="#fafafa" stroke="#e0e0e0" stroke-width="0.5"/>
  <circle cx="18" cy="42" r="4" fill="#fafafa" stroke="#e0e0e0" stroke-width="0.5"/>
  <circle cx="13" cy="35" r="4" fill="#fafafa" stroke="#e0e0e0" stroke-width="0.5"/>
  <circle cx="10" cy="27" r="4" fill="#fafafa" stroke="#e0e0e0" stroke-width="0.5"/>
  <!-- Pearl shine -->
  <circle cx="29" cy="48" r="1.5" fill="white" opacity="0.6"/>
</svg>