<svg xmlns="http://www.w3.org/2000/svg" viewBox="0 0 60 60">
  <!-- Scarf body -->
  <path d="M5 15 Q30 5 55 15 Q55 25 50 30 Q40 35 30 55 Q20 35 10 30 Q5 25 5 15Z" fill="#ff7043"/>
  <!-- Pattern - stripes -->
  <path d="M10 17 Q30 9 50 17" stroke="#ffab91" stroke-width="2" fill="none"/>
  <path d="M8 22 Q30 14 52 22" stroke="#ffab91" stroke-width="2" fill="none"/>
  <!-- Paisley decoration -->
  <path d="M25 28 Q28 22 32 28 Q28 32 25 28Z" fill="#fff9c4" opacity="0.6"/>
  <path d="M35 25 Q38 20 42 25 Q38 29 35 25Z" fill="#fff9c4" opacity="0.6"/>
  <!-- Fringe ends -->
  <line x1="25" y1="50" x2="24" y2="56" stroke="#ff7043" stroke-width="1.5"/>
  <line x1="28" y1="52" x2="28" y2="58" stroke="#ff7043" stroke-width="1.5"/>
  <line x1="31" y1="53" x2="32" y2="59" stroke="#ff7043" stroke-width="1.5"/>
  <line x1="34" y1="52" x2="35" y2="58" stroke="#ff7043" stroke-width="1.5"/>
</svg>