<svg xmlns="http://www.w3.org/2000/svg" viewBox="0 0 60 60">
  <!-- Bridge -->
  <path d="M22 25 Q30 20 38 25" stroke="#e91e63" stroke-width="3" fill="none"/>
  <!-- Left lens frame -->
  <ellipse cx="15" cy="30" rx="13" ry="11" fill="#e91e63"/>
  <ellipse cx="15" cy="30" rx="10" ry="8" fill="#1a237e" opacity="0.7"/>
  <!-- Right lens frame -->
  <ellipse cx="45" cy="30" rx="13" ry="11" fill="#e91e63"/>
  <ellipse cx="45" cy="30" rx="10" ry="8" fill="#1a237e" opacity="0.7"/>
  <!-- Lens shine -->
  <ellipse cx="12" cy="27" rx="4" ry="3" fill="white" opacity="0.2"/>
  <ellipse cx="42" cy="27" rx="4" ry="3" fill="white" opacity="0.2"/>
  <!-- Temple arms -->
  <line x1="2" y1="25" x2="4" y2="25" stroke="#e91e63" stroke-width="3" stroke-linecap="round"/>
  <line x1="56" y1="25" x2="58" y2="25" stroke="#e91e63" stroke-width="3" stroke-linecap="round"/>
  <!-- Heart shape on frame -->
  <path d="M14 38 Q14 36 15 36 Q16 36 16 38 Q16 40 15 41 Q14 40 14 38Z" fill="#f48fb1"/>
  <path d="M44 38 Q44 36 45 36 Q46 36 46 38 Q46 40 45 41 Q44 40 44 38Z" fill="#f48fb1"/>
</svg>