<svg xmlns="http://www.w3.org/2000/svg" viewBox="0 0 60 60">
  <!-- Headband arc -->
  <path d="M5 45 Q5 10 30 8 Q55 10 55 45" fill="none" stroke="#66bb6a" stroke-width="4"/>
  <!-- Flower 1 - pink -->
  <circle cx="15" cy="22" r="4" fill="#f48fb1"/>
  <circle cx="15" cy="14" r="4" fill="#f48fb1"/>
  <circle cx="10" cy="18" r="4" fill="#f48fb1"/>
  <circle cx="20" cy="18" r="4" fill="#f48fb1"/>
  <circle cx="15" cy="18" r="3" fill="#ffd54f"/>
  <!-- Flower 2 - purple -->
  <circle cx="30" cy="12" r="4" fill="#ce93d8"/>
  <circle cx="30" cy="4" r="4" fill="#ce93d8"/>
  <circle cx="25" cy="8" r="4" fill="#ce93d8"/>
  <circle cx="35" cy="8" r="4" fill="#ce93d8"/>
  <circle cx="30" cy="8" r="3" fill="#ffd54f"/>
  <!-- Flower 3 - blue -->
  <circle cx="45" cy="22" r="4" fill="#90caf9"/>
  <circle cx="45" cy="14" r="4" fill="#90caf9"/>
  <circle cx="40" cy="18" r="4" fill="#90caf9"/>
  <circle cx="50" cy="18" r="4" fill="#90caf9"/>
  <circle cx="45" cy="18" r="3" fill="#ffd54f"/>
  <!-- Leaves -->
  <path d="M8 25 Q5 30 8 32 Q10 30 8 25Z" fill="#4caf50"/>
  <path d="M22 25 Q25 30 22 32 Q20 30 22 25Z" fill="#4caf50"/>
  <path d="M38 25 Q35 30 38 32 Q40 30 38 25Z" fill="#4caf50"/>
  <path d="M52 25 Q55 30 52 32 Q50 30 52 25Z" fill="#4caf50"/>
</svg>