<svg xmlns="http://www.w3.org/2000/svg" viewBox="0 0 70 60">
  <!-- Crown body -->
  <path d="M10 50 L10 25 L20 35 L30 15 L35 30 L40 15 L50 35 L60 25 L60 50Z" fill="#ffd54f"/>
  <!-- Crown base band -->
  <rect x="10" y="44" width="50" height="8" rx="2" fill="#ffb300"/>
  <!-- Inner gold -->
  <path d="M14 44 L14 28 L22 36 L30 20 L35 32 L40 20 L48 36 L56 28 L56 44Z" fill="#ffca28"/>
  <!-- Gems on points -->
  <circle cx="30" cy="18" r="3" fill="#e91e63"/>
  <circle cx="30" cy="18" r="1.5" fill="#f48fb1"/>
  <circle cx="40" cy="18" r="3" fill="#42a5f5"/>
  <circle cx="40" cy="18" r="1.5" fill="#90caf9"/>
  <!-- Gems on band -->
  <circle cx="20" cy="48" r="3" fill="#e91e63"/>
  <circle cx="35" cy="48" r="4" fill="#7c4dff"/>
  <circle cx="35" cy="48" r="2" fill="#b388ff"/>
  <circle cx="50" cy="48" r="3" fill="#e91e63"/>
  <!-- Small gems between -->
  <circle cx="27" cy="48" r="1.5" fill="#26c6da"/>
  <circle cx="43" cy="48" r="1.5" fill="#26c6da"/>
  <!-- Cross on top -->
  <rect x="33" y="10" width="4" height="10" rx="1" fill="#ffd54f"/>
  <rect x="30" y="12" width="10" height="4" rx="1" fill="#ffd54f"/>
  <circle cx="35" cy="14" r="2" fill="#e91e63"/>
  <!-- Sparkles -->
  <path d="M5 20 L7 17 M6 15 L6 22 M3 18 L9 18" stroke="#fff9c4" stroke-width="0.8"/>
  <path d="M63 18 L65 15 M64 13 L64 20 M61 16 L67 16" stroke="#fff9c4" stroke-width="0.8"/>
</svg>