<svg xmlns="http://www.w3.org/2000/svg" viewBox="0 0 200 300" width="200" height="300">
  <defs>
    <linearGradient id="lumiHairGrad" x1="0%" y1="0%" x2="100%" y2="100%">
      <stop offset="0%" stop-color="#D8B4FE"/>
      <stop offset="50%" stop-color="#B57EDC"/>
      <stop offset="100%" stop-color="#9B59B6"/>
    </linearGradient>
    <linearGradient id="lumiHairShine" x1="0%" y1="0%" x2="0%" y2="100%">
      <stop offset="0%" stop-color="#EDE0F7" stop-opacity="0.8"/>
      <stop offset="100%" stop-color="#C9A0DC" stop-opacity="0"/>
    </linearGradient>
    <radialGradient id="lumiSkin" cx="50%" cy="40%" r="55%">
      <stop offset="0%" stop-color="#FFF0E0"/>
      <stop offset="80%" stop-color="#FDDCBD"/>
      <stop offset="100%" stop-color="#F5CEAA"/>
    </radialGradient>
    <radialGradient id="lumiEyeL" cx="42%" cy="32%" r="55%">
      <stop offset="0%" stop-color="#A78BFA"/>
      <stop offset="45%" stop-color="#7C3AED"/>
      <stop offset="100%" stop-color="#4C1D95"/>
    </radialGradient>
    <radialGradient id="lumiEyeR" cx="58%" cy="32%" r="55%">
      <stop offset="0%" stop-color="#A78BFA"/>
      <stop offset="45%" stop-color="#7C3AED"/>
      <stop offset="100%" stop-color="#4C1D95"/>
    </radialGradient>
    <linearGradient id="lumiSkirt" x1="0%" y1="0%" x2="0%" y2="100%">
      <stop offset="0%" stop-color="#A855F7"/>
      <stop offset="100%" stop-color="#7E22CE"/>
    </linearGradient>
    <linearGradient id="lumiShirt" x1="0%" y1="0%" x2="0%" y2="100%">
      <stop offset="0%" stop-color="#FFFFFF"/>
      <stop offset="100%" stop-color="#F3E8FF"/>
    </linearGradient>
    <linearGradient id="lumiBand" x1="0%" y1="0%" x2="100%" y2="0%">
      <stop offset="0%" stop-color="#F472B6"/>
      <stop offset="100%" stop-color="#EC4899"/>
    </linearGradient>
    <linearGradient id="lumiShoe" x1="0%" y1="0%" x2="0%" y2="100%">
      <stop offset="0%" stop-color="#374151"/>
      <stop offset="100%" stop-color="#1F2937"/>
    </linearGradient>
    <filter id="lumiShadow" x="-15%" y="-10%" width="130%" height="130%">
      <feGaussianBlur in="SourceAlpha" stdDeviation="1.5" result="blur"/>
      <feOffset dx="1" dy="2" result="off"/>
      <feFlood flood-color="#000" flood-opacity="0.12"/>
      <feComposite in2="off" operator="in" result="sh"/>
      <feMerge><feMergeNode in="sh"/><feMergeNode in="SourceGraphic"/></feMerge>
    </filter>
    <filter id="lumiBlush" x="-50%" y="-50%" width="200%" height="200%">
      <feGaussianBlur stdDeviation="3.5"/>
    </filter>
  </defs>

  <g filter="url(#lumiShadow)">
    <!-- ======= LEGS ======= -->
    <rect x="79" y="228" width="14" height="36" rx="7" fill="#FDDCBD"/>
    <rect x="107" y="228" width="14" height="36" rx="7" fill="#FDDCBD"/>

    <!-- Socks -->
    <rect x="77" y="250" width="18" height="16" rx="5" fill="white" stroke="#E9D5FF" stroke-width="0.6"/>
    <rect x="105" y="250" width="18" height="16" rx="5" fill="white" stroke="#E9D5FF" stroke-width="0.6"/>
    <rect x="77" y="250" width="18" height="3" rx="1.5" fill="#E9D5FF"/>
    <rect x="105" y="250" width="18" height="3" rx="1.5" fill="#E9D5FF"/>

    <!-- Shoes -->
    <ellipse cx="86" cy="270" rx="15" ry="7" fill="url(#lumiShoe)"/>
    <ellipse cx="114" cy="270" rx="15" ry="7" fill="url(#lumiShoe)"/>
    <ellipse cx="84" cy="268" rx="7" ry="2.5" fill="#4B5563" opacity="0.5"/>
    <ellipse cx="112" cy="268" rx="7" ry="2.5" fill="#4B5563" opacity="0.5"/>
    <path d="M74 268 Q86 262 98 268" fill="none" stroke="#1F2937" stroke-width="1.2"/>
    <path d="M102 268 Q114 262 126 268" fill="none" stroke="#1F2937" stroke-width="1.2"/>

    <!-- ======= SKIRT ======= -->
    <path d="M68 200 Q74 194 100 192 Q126 194 132 200 L140 242 Q125 248 100 248 Q75 248 60 242 Z" fill="url(#lumiSkirt)"/>
    <!-- Pleats -->
    <path d="M80 198 L76 244" fill="none" stroke="#7E22CE" stroke-width="0.7" opacity="0.35"/>
    <path d="M92 195 L88 247" fill="none" stroke="#7E22CE" stroke-width="0.7" opacity="0.35"/>
    <path d="M108 195 L112 247" fill="none" stroke="#7E22CE" stroke-width="0.7" opacity="0.35"/>
    <path d="M120 198 L124 244" fill="none" stroke="#7E22CE" stroke-width="0.7" opacity="0.35"/>
    <!-- Skirt highlight -->
    <path d="M72 202 Q100 196 128 202 L130 210 Q100 204 70 210 Z" fill="white" opacity="0.1"/>

    <!-- ======= SHIRT ======= -->
    <path d="M70 155 Q74 147 100 144 Q126 147 130 155 L132 200 Q126 194 100 192 Q74 194 68 200 Z" fill="url(#lumiShirt)" stroke="#E9D5FF" stroke-width="0.5"/>
    <!-- Collar -->
    <path d="M83 151 L100 168 L117 151" fill="none" stroke="#D8B4FE" stroke-width="1.4"/>
    <path d="M83 151 L93 161 L100 147" fill="white" stroke="#D8B4FE" stroke-width="0.5"/>
    <path d="M117 151 L107 161 L100 147" fill="white" stroke="#D8B4FE" stroke-width="0.5"/>
    <!-- Bow -->
    <path d="M94 154 Q97 149 100 154 Q103 149 106 154 Q103 157 100 154 Q97 157 94 154" fill="#F472B6"/>
    <circle cx="100" cy="154" r="2" fill="#EC4899"/>
    <!-- Buttons -->
    <circle cx="100" cy="173" r="1" fill="#D8B4FE"/>
    <circle cx="100" cy="183" r="1" fill="#D8B4FE"/>

    <!-- ======= ARMS ======= -->
    <!-- Left arm -->
    <path d="M70 158 Q60 172 56 190 Q55 196 59 196 Q63 194 66 186 Q70 174 74 164" fill="#FDDCBD" stroke="#F0C9A0" stroke-width="0.4"/>
    <ellipse cx="57" cy="195" rx="6" ry="5.5" fill="#FFF0E0"/>
    <!-- Left fingers hint -->
    <path d="M52 193 Q51 190 53 188" fill="none" stroke="#F0C9A0" stroke-width="0.6" stroke-linecap="round"/>
    <!-- Left sleeve -->
    <path d="M70 155 Q64 160 62 166 Q68 163 72 157" fill="url(#lumiShirt)" stroke="#E9D5FF" stroke-width="0.4"/>

    <!-- Right arm -->
    <path d="M130 158 Q140 172 144 190 Q145 196 141 196 Q137 194 134 186 Q130 174 126 164" fill="#FDDCBD" stroke="#F0C9A0" stroke-width="0.4"/>
    <ellipse cx="143" cy="195" rx="6" ry="5.5" fill="#FFF0E0"/>
    <path d="M148 193 Q149 190 147 188" fill="none" stroke="#F0C9A0" stroke-width="0.6" stroke-linecap="round"/>
    <!-- Right sleeve -->
    <path d="M130 155 Q136 160 138 166 Q132 163 128 157" fill="url(#lumiShirt)" stroke="#E9D5FF" stroke-width="0.4"/>

    <!-- ======= HEAD ======= -->

    <!-- Hair back volume -->
    <ellipse cx="100" cy="75" rx="60" ry="58" fill="url(#lumiHairGrad)"/>

    <!-- Face -->
    <ellipse cx="100" cy="85" rx="48" ry="46" fill="url(#lumiSkin)"/>

    <!-- Hair bangs front -->
    <path d="M52 72 Q56 38 78 28 Q92 24 100 26 Q108 24 122 28 Q144 38 148 72 Q146 58 138 50 Q128 42 120 48 Q112 38 100 36 Q88 38 80 48 Q72 42 62 50 Q54 58 52 72" fill="url(#lumiHairGrad)"/>
    <!-- Bangs shine -->
    <path d="M62 64 Q68 42 84 34 Q92 30 98 32 Q93 38 86 46 Q78 54 68 64" fill="url(#lumiHairShine)" opacity="0.5"/>
    <path d="M110 40 Q116 36 124 38 Q130 42 134 50 Q128 44 120 42 Q114 42 110 44" fill="url(#lumiHairShine)" opacity="0.3"/>

    <!-- Left pigtail -->
    <path d="M54 58 Q32 64 26 88 Q22 108 27 128 Q30 140 38 144 Q46 146 48 134 Q50 118 47 98 Q45 78 54 58" fill="url(#lumiHairGrad)"/>
    <path d="M48 68 Q36 78 32 98 Q30 112 34 126" fill="none" stroke="#EDE0F7" stroke-width="2" opacity="0.35"/>
    <!-- Left hair tie -->
    <ellipse cx="52" cy="60" rx="7" ry="5" fill="url(#lumiBand)"/>
    <ellipse cx="52" cy="60" rx="4.5" ry="3" fill="#F472B6" opacity="0.5"/>
    <!-- Left pigtail curl at end -->
    <path d="M38 142 Q34 148 38 150 Q42 148 40 144" fill="url(#lumiHairGrad)"/>

    <!-- Right pigtail -->
    <path d="M146 58 Q168 64 174 88 Q178 108 173 128 Q170 140 162 144 Q154 146 152 134 Q150 118 153 98 Q155 78 146 58" fill="url(#lumiHairGrad)"/>
    <path d="M152 68 Q164 78 168 98 Q170 112 166 126" fill="none" stroke="#EDE0F7" stroke-width="2" opacity="0.35"/>
    <!-- Right hair tie -->
    <ellipse cx="148" cy="60" rx="7" ry="5" fill="url(#lumiBand)"/>
    <ellipse cx="148" cy="60" rx="4.5" ry="3" fill="#F472B6" opacity="0.5"/>
    <!-- Right pigtail curl -->
    <path d="M162 142 Q166 148 162 150 Q158 148 160 144" fill="url(#lumiHairGrad)"/>

    <!-- Ears -->
    <ellipse cx="54" cy="88" rx="5" ry="7" fill="#FDDCBD"/>
    <ellipse cx="54" cy="88" rx="2.5" ry="4" fill="#F0C9A0" opacity="0.4"/>
    <ellipse cx="146" cy="88" rx="5" ry="7" fill="#FDDCBD"/>
    <ellipse cx="146" cy="88" rx="2.5" ry="4" fill="#F0C9A0" opacity="0.4"/>

    <!-- ======= FACE ======= -->

    <!-- Eyebrows -->
    <path d="M72 68 Q80 62 90 65" fill="none" stroke="#7C3AED" stroke-width="1.6" stroke-linecap="round" opacity="0.6"/>
    <path d="M128 68 Q120 62 110 65" fill="none" stroke="#7C3AED" stroke-width="1.6" stroke-linecap="round" opacity="0.6"/>

    <!-- Left eye -->
    <ellipse cx="82" cy="82" rx="13" ry="14" fill="white"/>
    <ellipse cx="82" cy="84" rx="9.5" ry="10.5" fill="url(#lumiEyeL)"/>
    <ellipse cx="82" cy="85" rx="4.5" ry="5.5" fill="#2E1065"/>
    <!-- Sparkles -->
    <circle cx="77" cy="79" r="3.5" fill="white" opacity="0.95"/>
    <circle cx="86" cy="88" r="1.8" fill="white" opacity="0.7"/>
    <circle cx="79" cy="86" r="1" fill="white" opacity="0.5"/>
    <!-- Star sparkle in eye -->
    <path d="M76 78 L77 76.5 L78 78 L79.5 77 L78 78 L77 79.5 L76 78 L74.5 77 Z" fill="white" opacity="0.6"/>
    <!-- Upper lid -->
    <path d="M69 77 Q76 69 82 69 Q88 69 95 77" fill="none" stroke="#5B21B6" stroke-width="2" stroke-linecap="round"/>
    <!-- Lashes -->
    <path d="M69 77 Q66 73 64 69" fill="none" stroke="#5B21B6" stroke-width="1.4" stroke-linecap="round"/>
    <path d="M72 74 Q70 70 69 67" fill="none" stroke="#5B21B6" stroke-width="1.1" stroke-linecap="round"/>
    <path d="M95 77 Q97 74 98 71" fill="none" stroke="#5B21B6" stroke-width="1" stroke-linecap="round"/>

    <!-- Right eye -->
    <ellipse cx="118" cy="82" rx="13" ry="14" fill="white"/>
    <ellipse cx="118" cy="84" rx="9.5" ry="10.5" fill="url(#lumiEyeR)"/>
    <ellipse cx="118" cy="85" rx="4.5" ry="5.5" fill="#2E1065"/>
    <circle cx="113" cy="79" r="3.5" fill="white" opacity="0.95"/>
    <circle cx="122" cy="88" r="1.8" fill="white" opacity="0.7"/>
    <circle cx="115" cy="86" r="1" fill="white" opacity="0.5"/>
    <path d="M112 78 L113 76.5 L114 78 L115.5 77 L114 78 L113 79.5 L112 78 L110.5 77 Z" fill="white" opacity="0.6"/>
    <path d="M105 77 Q112 69 118 69 Q124 69 131 77" fill="none" stroke="#5B21B6" stroke-width="2" stroke-linecap="round"/>
    <path d="M131 77 Q134 73 136 69" fill="none" stroke="#5B21B6" stroke-width="1.4" stroke-linecap="round"/>
    <path d="M128 74 Q130 70 131 67" fill="none" stroke="#5B21B6" stroke-width="1.1" stroke-linecap="round"/>
    <path d="M105 77 Q103 74 102 71" fill="none" stroke="#5B21B6" stroke-width="1" stroke-linecap="round"/>

    <!-- Blush -->
    <ellipse cx="68" cy="97" rx="9" ry="5" fill="#FCA5A5" filter="url(#lumiBlush)" opacity="0.45"/>
    <ellipse cx="132" cy="97" rx="9" ry="5" fill="#FCA5A5" filter="url(#lumiBlush)" opacity="0.45"/>

    <!-- Nose -->
    <ellipse cx="100" cy="93" rx="2" ry="1.5" fill="#F0C9A0" opacity="0.6"/>

    <!-- Mouth - neutral curious -->
    <path d="M93 105 Q100 111 107 105" fill="none" stroke="#D97070" stroke-width="1.6" stroke-linecap="round"/>

    <!-- Hair wisps on forehead -->
    <path d="M88 40 Q86 50 89 57" fill="none" stroke="#C084FC" stroke-width="1.3" opacity="0.4" stroke-linecap="round"/>
    <path d="M100 36 Q99 46 100 54" fill="none" stroke="#C084FC" stroke-width="1.3" opacity="0.4" stroke-linecap="round"/>
    <path d="M112 40 Q114 50 111 57" fill="none" stroke="#C084FC" stroke-width="1.3" opacity="0.4" stroke-linecap="round"/>

    <!-- Small star accessory near left pigtail -->
    <path d="M44 52 L46 48 L48 52 L52 50 L48 52 L46 56 L44 52 L40 50 Z" fill="#FDE68A" stroke="#F59E0B" stroke-width="0.4" opacity="0.7"/>
  </g>
</svg>