<svg xmlns="http://www.w3.org/2000/svg" viewBox="0 0 120 120">
  <defs>
    <linearGradient id="moda_camiseta_grad1" x1="0" y1="0" x2="1" y2="1">
      <stop offset="0%" stop-color="#60A5FA"/>
      <stop offset="100%" stop-color="#3B82F6"/>
    </linearGradient>
    <linearGradient id="moda_camiseta_grad2" x1="0" y1="0" x2="0" y2="1">
      <stop offset="0%" stop-color="#93C5FD"/>
      <stop offset="100%" stop-color="#60A5FA"/>
    </linearGradient>
    <filter id="moda_camiseta_shadow">
      <feDropShadow dx="1" dy="2" stdDeviation="2" flood-opacity="0.18"/>
    </filter>
  </defs>
  <g filter="url(#moda_camiseta_shadow)">
    <!-- Collar -->
    <path d="M50 18 Q60 28 70 18" fill="none" stroke="#2563EB" stroke-width="3" stroke-linecap="round"/>
    <!-- Body -->
    <path d="M42 22 L42 95 Q60 100 78 95 L78 22 Q70 18 60 22 Q50 18 42 22Z" fill="url(#moda_camiseta_grad1)" stroke="#2563EB" stroke-width="1.5"/>
    <!-- Left sleeve -->
    <path d="M42 22 L20 38 L24 55 L42 42Z" fill="url(#moda_camiseta_grad2)" stroke="#2563EB" stroke-width="1.5"/>
    <!-- Right sleeve -->
    <path d="M78 22 L100 38 L96 55 L78 42Z" fill="url(#moda_camiseta_grad2)" stroke="#2563EB" stroke-width="1.5"/>
    <!-- Star design -->
    <polygon points="60,48 63,56 72,56 65,62 68,70 60,65 52,70 55,62 48,56 57,56" fill="#FBBF24" stroke="#F59E0B" stroke-width="1"/>
    <!-- Star shine -->
    <circle cx="58" cy="54" r="1" fill="white" opacity="0.8"/>
    <!-- Hem line -->
    <path d="M42 95 Q60 100 78 95" fill="none" stroke="#2563EB" stroke-width="1.5"/>
  </g>
</svg>