<svg xmlns="http://www.w3.org/2000/svg" viewBox="0 0 120 120">
  <defs>
    <linearGradient id="moda_coroa_grad1" x1="0" y1="0" x2="0" y2="1">
      <stop offset="0%" stop-color="#FDE047"/>
      <stop offset="100%" stop-color="#F59E0B"/>
    </linearGradient>
    <linearGradient id="moda_coroa_grad2" x1="0" y1="0" x2="0" y2="1">
      <stop offset="0%" stop-color="#FBBF24"/>
      <stop offset="100%" stop-color="#D97706"/>
    </linearGradient>
    <filter id="moda_coroa_shadow">
      <feDropShadow dx="1" dy="2" stdDeviation="2" flood-opacity="0.18"/>
    </filter>
  </defs>
  <g filter="url(#moda_coroa_shadow)">
    <!-- Crown body -->
    <path d="M15 85 L15 45 L30 60 L45 30 L60 55 L75 30 L90 60 L105 45 L105 85Z" fill="url(#moda_coroa_grad1)" stroke="#D97706" stroke-width="2"/>
    <!-- Crown band -->
    <rect x="15" y="78" width="90" height="10" rx="3" fill="url(#moda_coroa_grad2)" stroke="#B45309" stroke-width="1.5"/>
    <!-- Band pattern -->
    <path d="M15 83 Q30 80 45 83 Q60 86 75 83 Q90 80 105 83" fill="none" stroke="#FDE047" stroke-width="1" opacity="0.5"/>
    <!-- Top gems -->
    <circle cx="45" cy="35" r="5" fill="#EF4444" stroke="#B91C1C" stroke-width="1"/>
    <circle cx="44" cy="33" r="1.5" fill="white" opacity="0.5"/>
    <circle cx="60" cy="55" r="4" fill="#3B82F6" stroke="#1D4ED8" stroke-width="1"/>
    <circle cx="59" cy="53" r="1.2" fill="white" opacity="0.5"/>
    <circle cx="75" cy="35" r="5" fill="#10B981" stroke="#059669" stroke-width="1"/>
    <circle cx="74" cy="33" r="1.5" fill="white" opacity="0.5"/>
    <!-- Band gems -->
    <circle cx="35" cy="83" r="3" fill="#EF4444" stroke="#B91C1C" stroke-width="0.8"/>
    <circle cx="60" cy="83" r="3" fill="#8B5CF6" stroke="#6D28D9" stroke-width="0.8"/>
    <circle cx="85" cy="83" r="3" fill="#3B82F6" stroke="#1D4ED8" stroke-width="0.8"/>
    <!-- Sparkles -->
    <circle cx="25" cy="55" r="1.5" fill="white" opacity="0.7"/>
    <circle cx="95" cy="55" r="1.5" fill="white" opacity="0.7"/>
    <circle cx="60" cy="42" r="1" fill="white" opacity="0.6"/>
  </g>
</svg>