<svg xmlns="http://www.w3.org/2000/svg" viewBox="0 0 120 120">
  <defs>
    <linearGradient id="moda_pulseira_grad1" x1="0" y1="0" x2="1" y2="0">
      <stop offset="0%" stop-color="#F87171"/>
      <stop offset="25%" stop-color="#FBBF24"/>
      <stop offset="50%" stop-color="#34D399"/>
      <stop offset="75%" stop-color="#60A5FA"/>
      <stop offset="100%" stop-color="#A78BFA"/>
    </linearGradient>
    <filter id="moda_pulseira_shadow">
      <feDropShadow dx="1" dy="2" stdDeviation="2" flood-opacity="0.18"/>
    </filter>
  </defs>
  <g filter="url(#moda_pulseira_shadow)">
    <!-- Bracelet outer ring -->
    <ellipse cx="60" cy="60" rx="42" ry="35" fill="none" stroke="url(#moda_pulseira_grad1)" stroke-width="10" stroke-linecap="round"/>
    <!-- Woven pattern - row 1 -->
    <path d="M20 50 Q30 44 40 50 Q50 56 60 50 Q70 44 80 50 Q90 56 100 50" fill="none" stroke="#EF4444" stroke-width="3" opacity="0.6"/>
    <!-- Woven pattern - row 2 -->
    <path d="M18 58 Q28 52 38 58 Q48 64 58 58 Q68 52 78 58 Q88 64 98 58" fill="none" stroke="#FBBF24" stroke-width="3" opacity="0.6"/>
    <!-- Woven pattern - row 3 -->
    <path d="M19 66 Q29 60 39 66 Q49 72 59 66 Q69 60 79 66 Q89 72 99 66" fill="none" stroke="#34D399" stroke-width="3" opacity="0.6"/>
    <!-- Thread beads -->
    <circle cx="30" cy="42" r="3" fill="#EF4444" stroke="#B91C1C" stroke-width="0.8"/>
    <circle cx="45" cy="36" r="3" fill="#FBBF24" stroke="#D97706" stroke-width="0.8"/>
    <circle cx="60" cy="34" r="3" fill="#34D399" stroke="#059669" stroke-width="0.8"/>
    <circle cx="75" cy="36" r="3" fill="#60A5FA" stroke="#2563EB" stroke-width="0.8"/>
    <circle cx="90" cy="42" r="3" fill="#A78BFA" stroke="#7C3AED" stroke-width="0.8"/>
    <!-- Bottom beads -->
    <circle cx="30" cy="78" r="3" fill="#A78BFA" stroke="#7C3AED" stroke-width="0.8"/>
    <circle cx="45" cy="84" r="3" fill="#60A5FA" stroke="#2563EB" stroke-width="0.8"/>
    <circle cx="60" cy="86" r="3" fill="#34D399" stroke="#059669" stroke-width="0.8"/>
    <circle cx="75" cy="84" r="3" fill="#FBBF24" stroke="#D97706" stroke-width="0.8"/>
    <circle cx="90" cy="78" r="3" fill="#EF4444" stroke="#B91C1C" stroke-width="0.8"/>
    <!-- Sparkle -->
    <circle cx="60" cy="60" r="1.5" fill="white" opacity="0.6"/>
  </g>
</svg>