<svg xmlns="http://www.w3.org/2000/svg" viewBox="0 0 120 120">
  <defs>
    <linearGradient id="moda_saia_grad1" x1="0" y1="0" x2="0" y2="1">
      <stop offset="0%" stop-color="#60A5FA"/>
      <stop offset="100%" stop-color="#2563EB"/>
    </linearGradient>
    <linearGradient id="moda_saia_grad2" x1="0" y1="0" x2="0" y2="1">
      <stop offset="0%" stop-color="#93C5FD"/>
      <stop offset="100%" stop-color="#60A5FA"/>
    </linearGradient>
    <filter id="moda_saia_shadow">
      <feDropShadow dx="1" dy="2" stdDeviation="2" flood-opacity="0.18"/>
    </filter>
  </defs>
  <g filter="url(#moda_saia_shadow)">
    <!-- Waistband -->
    <rect x="30" y="20" width="60" height="12" rx="4" fill="url(#moda_saia_grad2)" stroke="#2563EB" stroke-width="1.5"/>
    <!-- Belt buckle -->
    <rect x="54" y="22" width="12" height="8" rx="2" fill="#1D4ED8" stroke="#1E40AF" stroke-width="1"/>
    <rect x="57" y="24" width="6" height="4" rx="1" fill="#93C5FD"/>
    <!-- Pleated skirt -->
    <path d="M30 32 L22 100 L32 100 L38 32Z" fill="url(#moda_saia_grad1)"/>
    <path d="M38 32 L32 100 L44 100 L46 32Z" fill="url(#moda_saia_grad2)"/>
    <path d="M46 32 L44 100 L56 100 L54 32Z" fill="url(#moda_saia_grad1)"/>
    <path d="M54 32 L56 100 L68 100 L66 32Z" fill="url(#moda_saia_grad2)"/>
    <path d="M66 32 L68 100 L78 100 L74 32Z" fill="url(#moda_saia_grad1)"/>
    <path d="M74 32 L78 100 L88 100 L82 32Z" fill="url(#moda_saia_grad2)"/>
    <path d="M82 32 L88 100 L98 100 L90 32Z" fill="url(#moda_saia_grad1)"/>
    <!-- Hem highlight -->
    <path d="M22 98 Q60 104 98 98" fill="none" stroke="#93C5FD" stroke-width="1.5" opacity="0.6"/>
  </g>
</svg>