<svg xmlns="http://www.w3.org/2000/svg" viewBox="0 0 120 120">
  <defs>
    <linearGradient id="moda_tenis_grad1" x1="0" y1="0" x2="1" y2="1">
      <stop offset="0%" stop-color="#A78BFA"/>
      <stop offset="50%" stop-color="#F472B6"/>
      <stop offset="100%" stop-color="#60A5FA"/>
    </linearGradient>
    <linearGradient id="moda_tenis_sole" x1="0" y1="0" x2="0" y2="1">
      <stop offset="0%" stop-color="#F5F5F5"/>
      <stop offset="100%" stop-color="#D4D4D4"/>
    </linearGradient>
    <filter id="moda_tenis_shadow">
      <feDropShadow dx="1" dy="2" stdDeviation="2" flood-opacity="0.18"/>
    </filter>
  </defs>
  <g filter="url(#moda_tenis_shadow)">
    <!-- Left shoe -->
    <!-- Sole -->
    <path d="M4 82 L4 88 Q4 92 8 92 L50 92 Q54 92 54 88 L54 82Z" fill="url(#moda_tenis_sole)" stroke="#A3A3A3" stroke-width="1"/>
    <!-- Sole grip pattern -->
    <line x1="12" y1="92" x2="12" y2="90" stroke="#A3A3A3" stroke-width="1"/>
    <line x1="20" y1="92" x2="20" y2="90" stroke="#A3A3A3" stroke-width="1"/>
    <line x1="28" y1="92" x2="28" y2="90" stroke="#A3A3A3" stroke-width="1"/>
    <line x1="36" y1="92" x2="36" y2="90" stroke="#A3A3A3" stroke-width="1"/>
    <line x1="44" y1="92" x2="44" y2="90" stroke="#A3A3A3" stroke-width="1"/>
    <!-- High top body -->
    <path d="M8 20 L4 82 L54 82 Q56 68 44 58 L44 20Z" fill="url(#moda_tenis_grad1)" stroke="#7C3AED" stroke-width="1.5"/>
    <!-- Tongue -->
    <path d="M16 20 L14 10 Q26 6 34 10 L32 20Z" fill="#C4B5FD"/>
    <!-- Ankle padding -->
    <path d="M8 20 L44 20 Q44 16 42 14 L10 14 Q8 16 8 20Z" fill="#E9D5FF" stroke="#7C3AED" stroke-width="1"/>
    <!-- Laces -->
    <line x1="18" y1="26" x2="32" y2="26" stroke="#FDE047" stroke-width="2"/>
    <line x1="17" y1="34" x2="33" y2="34" stroke="#FDE047" stroke-width="2"/>
    <line x1="16" y1="42" x2="34" y2="42" stroke="#FDE047" stroke-width="2"/>
    <line x1="15" y1="50" x2="35" y2="50" stroke="#FDE047" stroke-width="2"/>
    <!-- Toe cap -->
    <path d="M38 82 Q56 68 44 58" fill="none" stroke="white" stroke-width="2" opacity="0.4"/>
    <!-- Star decoration -->
    <polygon points="12,65 13.5,69 18,69 14.5,72 16,76 12,73 8,76 9.5,72 6,69 10.5,69" fill="#FDE047" stroke="#F59E0B" stroke-width="0.5"/>

    <!-- Right shoe -->
    <!-- Sole -->
    <path d="M62 82 L62 88 Q62 92 66 92 L108 92 Q112 92 112 88 L112 82Z" fill="url(#moda_tenis_sole)" stroke="#A3A3A3" stroke-width="1"/>
    <!-- Sole grip -->
    <line x1="70" y1="92" x2="70" y2="90" stroke="#A3A3A3" stroke-width="1"/>
    <line x1="78" y1="92" x2="78" y2="90" stroke="#A3A3A3" stroke-width="1"/>
    <line x1="86" y1="92" x2="86" y2="90" stroke="#A3A3A3" stroke-width="1"/>
    <line x1="94" y1="92" x2="94" y2="90" stroke="#A3A3A3" stroke-width="1"/>
    <line x1="102" y1="92" x2="102" y2="90" stroke="#A3A3A3" stroke-width="1"/>
    <!-- High top body -->
    <path d="M66 20 L62 82 L112 82 Q114 68 102 58 L102 20Z" fill="url(#moda_tenis_grad1)" stroke="#7C3AED" stroke-width="1.5"/>
    <!-- Tongue -->
    <path d="M74 20 L72 10 Q84 6 92 10 L90 20Z" fill="#C4B5FD"/>
    <!-- Ankle padding -->
    <path d="M66 20 L102 20 Q102 16 100 14 L68 14 Q66 16 66 20Z" fill="#E9D5FF" stroke="#7C3AED" stroke-width="1"/>
    <!-- Laces -->
    <line x1="76" y1="26" x2="90" y2="26" stroke="#FDE047" stroke-width="2"/>
    <line x1="75" y1="34" x2="91" y2="34" stroke="#FDE047" stroke-width="2"/>
    <line x1="74" y1="42" x2="92" y2="42" stroke="#FDE047" stroke-width="2"/>
    <line x1="73" y1="50" x2="93" y2="50" stroke="#FDE047" stroke-width="2"/>
    <!-- Toe cap -->
    <path d="M96 82 Q114 68 102 58" fill="none" stroke="white" stroke-width="2" opacity="0.4"/>
    <!-- Star decoration -->
    <polygon points="70,65 71.5,69 76,69 72.5,72 74,76 70,73 66,76 67.5,72 64,69 68.5,69" fill="#FDE047" stroke="#F59E0B" stroke-width="0.5"/>
  </g>
</svg>