<svg xmlns="http://www.w3.org/2000/svg" viewBox="0 0 960 540" width="960" height="540">
  <defs>
    <linearGradient id="libWall" x1="0%" y1="0%" x2="0%" y2="100%">
      <stop offset="0%" stop-color="#FEF3C7"/>
      <stop offset="100%" stop-color="#F3E8D0"/>
    </linearGradient>
    <linearGradient id="libFloor" x1="0%" y1="0%" x2="0%" y2="100%">
      <stop offset="0%" stop-color="#92400E"/>
      <stop offset="100%" stop-color="#78350F"/>
    </linearGradient>
    <linearGradient id="libShelf" x1="0%" y1="0%" x2="0%" y2="100%">
      <stop offset="0%" stop-color="#A0764A"/>
      <stop offset="100%" stop-color="#8B5E3C"/>
    </linearGradient>
    <linearGradient id="libShelfDk" x1="0%" y1="0%" x2="0%" y2="100%">
      <stop offset="0%" stop-color="#8B5E3C"/>
      <stop offset="100%" stop-color="#6D4228"/>
    </linearGradient>
    <radialGradient id="libLamp" cx="50%" cy="0%" r="80%">
      <stop offset="0%" stop-color="#FDE68A" stop-opacity="0.5"/>
      <stop offset="60%" stop-color="#FEF08A" stop-opacity="0.15"/>
      <stop offset="100%" stop-color="#FEF08A" stop-opacity="0"/>
    </radialGradient>
    <radialGradient id="libRugCenter" cx="50%" cy="50%" r="50%">
      <stop offset="0%" stop-color="#DC2626"/>
      <stop offset="40%" stop-color="#B91C1C"/>
      <stop offset="70%" stop-color="#991B1B"/>
      <stop offset="100%" stop-color="#7F1D1D"/>
    </radialGradient>
    <linearGradient id="libCushion1" x1="0%" y1="0%" x2="0%" y2="100%">
      <stop offset="0%" stop-color="#C084FC"/>
      <stop offset="100%" stop-color="#A855F7"/>
    </linearGradient>
    <linearGradient id="libCushion2" x1="0%" y1="0%" x2="0%" y2="100%">
      <stop offset="0%" stop-color="#60A5FA"/>
      <stop offset="100%" stop-color="#3B82F6"/>
    </linearGradient>
    <linearGradient id="libCushion3" x1="0%" y1="0%" x2="0%" y2="100%">
      <stop offset="0%" stop-color="#F472B6"/>
      <stop offset="100%" stop-color="#EC4899"/>
    </linearGradient>
    <filter id="libGlow" x="-30%" y="-30%" width="160%" height="160%">
      <feGaussianBlur stdDeviation="8"/>
    </filter>
    <filter id="libSoftGlow" x="-50%" y="-50%" width="200%" height="200%">
      <feGaussianBlur stdDeviation="15"/>
    </filter>
  </defs>

  <!-- ======= WALL ======= -->
  <rect width="960" height="400" fill="url(#libWall)"/>

  <!-- Wall molding -->
  <rect y="0" width="960" height="6" fill="#D4A574" opacity="0.3"/>
  <rect y="395" width="960" height="5" rx="2" fill="#B8864E" opacity="0.4"/>

  <!-- ======= FLOOR ======= -->
  <rect y="400" width="960" height="140" fill="url(#libFloor)"/>
  <!-- Floor boards -->
  <g stroke="#6D4228" stroke-width="0.5" opacity="0.2">
    <line x1="0" y1="430" x2="960" y2="430"/>
    <line x1="0" y1="460" x2="960" y2="460"/>
    <line x1="0" y1="490" x2="960" y2="490"/>
    <line x1="0" y1="520" x2="960" y2="520"/>
    <line x1="100" y1="400" x2="100" y2="540"/>
    <line x1="220" y1="400" x2="220" y2="540"/>
    <line x1="340" y1="400" x2="340" y2="540"/>
    <line x1="460" y1="400" x2="460" y2="540"/>
    <line x1="580" y1="400" x2="580" y2="540"/>
    <line x1="700" y1="400" x2="700" y2="540"/>
    <line x1="820" y1="400" x2="820" y2="540"/>
  </g>
  <!-- Floor shine -->
  <rect y="400" width="960" height="10" fill="white" opacity="0.05"/>

  <!-- ======= LEFT TALL BOOKSHELF ======= -->
  <g transform="translate(10, 20)">
    <rect width="150" height="380" rx="4" fill="url(#libShelf)" stroke="#6D4228" stroke-width="1"/>
    <!-- Shelf dividers -->
    <rect x="3" y="3" width="144" height="72" fill="#6D4228"/>
    <rect x="3" y="78" width="144" height="72" fill="#6D4228"/>
    <rect x="3" y="153" width="144" height="72" fill="#6D4228"/>
    <rect x="3" y="228" width="144" height="72" fill="#6D4228"/>
    <rect x="3" y="303" width="144" height="72" fill="#6D4228"/>

    <!-- Row 1 books -->
    <rect x="8" y="15" width="12" height="56" rx="1" fill="#EF4444"/>
    <rect x="22" y="10" width="10" height="61" rx="1" fill="#3B82F6"/>
    <rect x="34" y="12" width="14" height="59" rx="1" fill="#22C55E"/>
    <rect x="50" y="18" width="9" height="53" rx="1" fill="#F97316"/>
    <rect x="61" y="8" width="12" height="63" rx="1" fill="#8B5CF6"/>
    <rect x="75" y="14" width="10" height="57" rx="1" fill="#EC4899"/>
    <rect x="87" y="16" width="8" height="55" rx="1" fill="#14B8A6"/>
    <rect x="97" y="11" width="11" height="60" rx="1" fill="#F59E0B"/>
    <rect x="110" y="15" width="13" height="56" rx="1" fill="#6366F1"/>
    <rect x="125" y="18" width="9" height="53" rx="1" fill="#EF4444"/>
    <rect x="136" y="12" width="8" height="59" rx="1" fill="#10B981"/>

    <!-- Row 2 books -->
    <rect x="8" y="90" width="14" height="56" rx="1" fill="#F472B6"/>
    <rect x="24" y="86" width="10" height="60" rx="1" fill="#0EA5E9"/>
    <rect x="36" y="92" width="12" height="54" rx="1" fill="#EAB308"/>
    <rect x="50" y="88" width="11" height="58" rx="1" fill="#8B5CF6"/>
    <rect x="63" y="85" width="9" height="61" rx="1" fill="#EF4444"/>
    <rect x="74" y="90" width="13" height="56" rx="1" fill="#22C55E"/>
    <rect x="89" y="87" width="10" height="59" rx="1" fill="#F97316"/>
    <rect x="101" y="92" width="8" height="54" rx="1" fill="#3B82F6"/>
    <rect x="111" y="86" width="12" height="60" rx="1" fill="#EC4899"/>
    <rect x="125" y="89" width="10" height="57" rx="1" fill="#14B8A6"/>

    <!-- Row 3 books -->
    <rect x="8" y="166" width="11" height="55" rx="1" fill="#6366F1"/>
    <rect x="21" y="160" width="13" height="61" rx="1" fill="#F59E0B"/>
    <rect x="36" y="164" width="9" height="57" rx="1" fill="#EF4444"/>
    <rect x="47" y="168" width="14" height="53" rx="1" fill="#3B82F6"/>
    <rect x="63" y="162" width="10" height="59" rx="1" fill="#22C55E"/>
    <rect x="75" y="166" width="12" height="55" rx="1" fill="#EC4899"/>
    <rect x="89" y="160" width="8" height="61" rx="1" fill="#0EA5E9"/>
    <rect x="99" y="164" width="11" height="57" rx="1" fill="#F472B6"/>
    <!-- Bookend (cat-shaped) -->
    <path d="M115 220 L115 200 Q118 195 120 200 Q122 195 125 200 L125 220 Z" fill="#6D4228"/>
    <circle cx="118" cy="205" r="1" fill="#FDE68A"/>
    <circle cx="123" cy="205" r="1" fill="#FDE68A"/>

    <!-- Row 4 books + some items -->
    <rect x="8" y="240" width="10" height="56" rx="1" fill="#8B5CF6"/>
    <rect x="20" y="236" width="12" height="60" rx="1" fill="#F97316"/>
    <rect x="34" y="242" width="9" height="54" rx="1" fill="#EF4444"/>
    <rect x="45" y="238" width="14" height="58" rx="1" fill="#22C55E"/>
    <rect x="61" y="234" width="10" height="62" rx="1" fill="#3B82F6"/>
    <rect x="73" y="240" width="11" height="56" rx="1" fill="#F472B6"/>
    <!-- Small plant -->
    <rect x="100" y="278" width="14" height="16" rx="3" fill="#92400E"/>
    <ellipse cx="107" cy="278" rx="10" ry="4" fill="#22C55E"/>
    <path d="M107 268 Q105 260 108 256 Q107 262 110 266 Q112 258 114 264 Q111 268 107 268" fill="#4ADE80"/>

    <!-- Row 5 books -->
    <rect x="8" y="316" width="13" height="55" rx="1" fill="#14B8A6"/>
    <rect x="23" y="310" width="10" height="61" rx="1" fill="#EAB308"/>
    <rect x="35" y="314" width="12" height="57" rx="1" fill="#6366F1"/>
    <rect x="49" y="318" width="9" height="53" rx="1" fill="#F97316"/>
    <rect x="60" y="312" width="14" height="59" rx="1" fill="#EC4899"/>
    <rect x="76" y="316" width="10" height="55" rx="1" fill="#3B82F6"/>
    <rect x="88" y="310" width="11" height="61" rx="1" fill="#EF4444"/>
    <rect x="101" y="314" width="12" height="57" rx="1" fill="#22C55E"/>
    <rect x="115" y="318" width="8" height="53" rx="1" fill="#F472B6"/>
    <rect x="125" y="312" width="10" height="59" rx="1" fill="#0EA5E9"/>
  </g>

  <!-- ======= RIGHT TALL BOOKSHELF ======= -->
  <g transform="translate(800, 20)">
    <rect width="150" height="380" rx="4" fill="url(#libShelf)" stroke="#6D4228" stroke-width="1"/>
    <rect x="3" y="3" width="144" height="72" fill="#6D4228"/>
    <rect x="3" y="78" width="144" height="72" fill="#6D4228"/>
    <rect x="3" y="153" width="144" height="72" fill="#6D4228"/>
    <rect x="3" y="228" width="144" height="72" fill="#6D4228"/>
    <rect x="3" y="303" width="144" height="72" fill="#6D4228"/>

    <!-- Books on each row -->
    <rect x="8" y="12" width="11" height="59" rx="1" fill="#EC4899"/>
    <rect x="21" y="16" width="13" height="55" rx="1" fill="#3B82F6"/>
    <rect x="36" y="10" width="10" height="61" rx="1" fill="#22C55E"/>
    <rect x="48" y="14" width="12" height="57" rx="1" fill="#F97316"/>
    <rect x="62" y="18" width="9" height="53" rx="1" fill="#8B5CF6"/>
    <rect x="73" y="12" width="14" height="59" rx="1" fill="#EAB308"/>
    <rect x="89" y="16" width="10" height="55" rx="1" fill="#EF4444"/>
    <rect x="101" y="10" width="11" height="61" rx="1" fill="#14B8A6"/>
    <rect x="114" y="14" width="13" height="57" rx="1" fill="#F472B6"/>
    <rect x="129" y="18" width="9" height="53" rx="1" fill="#6366F1"/>

    <rect x="8" y="88" width="10" height="58" rx="1" fill="#F59E0B"/>
    <rect x="20" y="84" width="12" height="62" rx="1" fill="#3B82F6"/>
    <rect x="34" y="90" width="14" height="56" rx="1" fill="#EC4899"/>
    <rect x="50" y="86" width="9" height="60" rx="1" fill="#22C55E"/>
    <rect x="61" y="92" width="11" height="54" rx="1" fill="#EF4444"/>
    <rect x="74" y="88" width="13" height="58" rx="1" fill="#8B5CF6"/>
    <rect x="89" y="84" width="10" height="62" rx="1" fill="#F97316"/>
    <rect x="101" y="90" width="12" height="56" rx="1" fill="#14B8A6"/>
    <rect x="115" y="86" width="9" height="60" rx="1" fill="#EAB308"/>
    <rect x="126" y="92" width="12" height="54" rx="1" fill="#6366F1"/>

    <rect x="8" y="162" width="12" height="59" rx="1" fill="#0EA5E9"/>
    <rect x="22" y="158" width="10" height="63" rx="1" fill="#F472B6"/>
    <rect x="34" y="164" width="14" height="57" rx="1" fill="#EAB308"/>
    <rect x="50" y="160" width="11" height="61" rx="1" fill="#6366F1"/>
    <rect x="63" y="166" width="9" height="55" rx="1" fill="#22C55E"/>
    <rect x="74" y="162" width="13" height="59" rx="1" fill="#EF4444"/>
    <rect x="89" y="158" width="10" height="63" rx="1" fill="#3B82F6"/>
    <rect x="101" y="164" width="12" height="57" rx="1" fill="#EC4899"/>
    <rect x="115" y="160" width="10" height="61" rx="1" fill="#F97316"/>

    <rect x="8" y="238" width="13" height="58" rx="1" fill="#8B5CF6"/>
    <rect x="23" y="234" width="10" height="62" rx="1" fill="#EF4444"/>
    <rect x="35" y="240" width="12" height="56" rx="1" fill="#22C55E"/>
    <rect x="49" y="236" width="9" height="60" rx="1" fill="#F59E0B"/>
    <rect x="60" y="242" width="14" height="54" rx="1" fill="#3B82F6"/>
    <rect x="76" y="238" width="10" height="58" rx="1" fill="#EC4899"/>
    <rect x="88" y="234" width="11" height="62" rx="1" fill="#14B8A6"/>
    <!-- Owl figurine -->
    <ellipse cx="115" cy="282" rx="9" ry="12" fill="#92400E"/>
    <ellipse cx="115" cy="278" rx="10" ry="8" fill="#A0764A"/>
    <circle cx="112" cy="276" r="3" fill="#FDE68A"/>
    <circle cx="118" cy="276" r="3" fill="#FDE68A"/>
    <circle cx="112" cy="276" r="1.5" fill="#1F2937"/>
    <circle cx="118" cy="276" r="1.5" fill="#1F2937"/>
    <path d="M114 280 L115 282 L116 280" fill="#F97316"/>
    <path d="M108 270 L112 274" fill="none" stroke="#A0764A" stroke-width="1.5"/>
    <path d="M122 270 L118 274" fill="none" stroke="#A0764A" stroke-width="1.5"/>

    <rect x="8" y="314" width="10" height="57" rx="1" fill="#F472B6"/>
    <rect x="20" y="310" width="12" height="61" rx="1" fill="#EAB308"/>
    <rect x="34" y="316" width="9" height="55" rx="1" fill="#3B82F6"/>
    <rect x="45" y="312" width="14" height="59" rx="1" fill="#22C55E"/>
    <rect x="61" y="318" width="10" height="53" rx="1" fill="#EF4444"/>
    <rect x="73" y="314" width="12" height="57" rx="1" fill="#8B5CF6"/>
    <rect x="87" y="310" width="11" height="61" rx="1" fill="#F97316"/>
    <rect x="100" y="316" width="13" height="55" rx="1" fill="#EC4899"/>
    <rect x="115" y="312" width="10" height="59" rx="1" fill="#14B8A6"/>
    <rect x="127" y="318" width="12" height="53" rx="1" fill="#0EA5E9"/>
  </g>

  <!-- ======= BACK SHELF (center, shorter) ======= -->
  <g transform="translate(300, 60)">
    <rect width="360" height="180" rx="4" fill="url(#libShelfDk)" stroke="#5C2D0E" stroke-width="1"/>
    <rect x="3" y="3" width="354" height="55" fill="#5C2D0E"/>
    <rect x="3" y="61" width="354" height="55" fill="#5C2D0E"/>
    <rect x="3" y="119" width="354" height="55" fill="#5C2D0E"/>

    <!-- Row 1 -->
    <rect x="8" y="10" width="12" height="44" rx="1" fill="#EF4444"/>
    <rect x="22" y="8" width="10" height="46" rx="1" fill="#60A5FA"/>
    <rect x="34" y="12" width="14" height="42" rx="1" fill="#22C55E"/>
    <rect x="50" y="10" width="9" height="44" rx="1" fill="#F97316"/>
    <rect x="61" y="6" width="12" height="48" rx="1" fill="#A855F7"/>
    <rect x="75" y="10" width="11" height="44" rx="1" fill="#EC4899"/>
    <rect x="88" y="14" width="8" height="40" rx="1" fill="#14B8A6"/>
    <rect x="98" y="8" width="13" height="46" rx="1" fill="#F59E0B"/>
    <rect x="113" y="12" width="10" height="42" rx="1" fill="#6366F1"/>
    <!-- Gap -->
    <rect x="140" y="10" width="11" height="44" rx="1" fill="#EF4444"/>
    <rect x="153" y="6" width="14" height="48" rx="1" fill="#3B82F6"/>
    <rect x="169" y="12" width="9" height="42" rx="1" fill="#22C55E"/>
    <rect x="180" y="8" width="12" height="46" rx="1" fill="#F472B6"/>
    <rect x="194" y="14" width="10" height="40" rx="1" fill="#EAB308"/>
    <rect x="206" y="10" width="13" height="44" rx="1" fill="#8B5CF6"/>
    <rect x="221" y="6" width="11" height="48" rx="1" fill="#0EA5E9"/>
    <rect x="234" y="12" width="9" height="42" rx="1" fill="#EF4444"/>
    <rect x="245" y="8" width="14" height="46" rx="1" fill="#22C55E"/>
    <rect x="261" y="10" width="10" height="44" rx="1" fill="#F97316"/>
    <rect x="273" y="14" width="12" height="40" rx="1" fill="#EC4899"/>
    <rect x="287" y="8" width="9" height="46" rx="1" fill="#3B82F6"/>
    <rect x="298" y="12" width="13" height="42" rx="1" fill="#14B8A6"/>
    <rect x="313" y="6" width="11" height="48" rx="1" fill="#6366F1"/>
    <rect x="326" y="10" width="10" height="44" rx="1" fill="#F59E0B"/>
    <rect x="338" y="14" width="14" height="40" rx="1" fill="#EF4444"/>

    <!-- Row 2 similar -->
    <rect x="8" y="68" width="13" height="44" rx="1" fill="#F472B6"/>
    <rect x="23" y="66" width="10" height="46" rx="1" fill="#EAB308"/>
    <rect x="35" y="70" width="12" height="42" rx="1" fill="#3B82F6"/>
    <rect x="49" y="68" width="9" height="44" rx="1" fill="#22C55E"/>
    <rect x="60" y="64" width="14" height="48" rx="1" fill="#EF4444"/>
    <rect x="76" y="70" width="10" height="42" rx="1" fill="#8B5CF6"/>
    <rect x="88" y="66" width="11" height="46" rx="1" fill="#0EA5E9"/>
    <rect x="101" y="68" width="13" height="44" rx="1" fill="#F97316"/>
    <rect x="116" y="72" width="9" height="40" rx="1" fill="#EC4899"/>
    <!-- Stacked books -->
    <rect x="140" y="96" width="40" height="8" rx="1" fill="#3B82F6"/>
    <rect x="142" y="88" width="36" height="8" rx="1" fill="#22C55E"/>
    <rect x="144" y="80" width="32" height="8" rx="1" fill="#EF4444"/>
    <!-- More books -->
    <rect x="200" y="68" width="12" height="44" rx="1" fill="#6366F1"/>
    <rect x="214" y="64" width="10" height="48" rx="1" fill="#F59E0B"/>
    <rect x="226" y="70" width="14" height="42" rx="1" fill="#EC4899"/>
    <rect x="242" y="66" width="11" height="46" rx="1" fill="#22C55E"/>
    <rect x="255" y="72" width="9" height="40" rx="1" fill="#EF4444"/>
    <rect x="266" y="68" width="13" height="44" rx="1" fill="#3B82F6"/>
    <rect x="281" y="64" width="10" height="48" rx="1" fill="#F472B6"/>
    <rect x="293" y="70" width="12" height="42" rx="1" fill="#14B8A6"/>
    <rect x="307" y="66" width="11" height="46" rx="1" fill="#EAB308"/>
    <rect x="320" y="72" width="14" height="40" rx="1" fill="#8B5CF6"/>
    <rect x="336" y="68" width="12" height="44" rx="1" fill="#0EA5E9"/>

    <!-- Row 3 -->
    <rect x="8" y="126" width="10" height="44" rx="1" fill="#EAB308"/>
    <rect x="20" y="124" width="14" height="46" rx="1" fill="#6366F1"/>
    <rect x="36" y="128" width="9" height="42" rx="1" fill="#F97316"/>
    <rect x="47" y="122" width="12" height="48" rx="1" fill="#EC4899"/>
    <rect x="61" y="126" width="10" height="44" rx="1" fill="#22C55E"/>
    <rect x="73" y="130" width="13" height="40" rx="1" fill="#3B82F6"/>
    <rect x="88" y="124" width="11" height="46" rx="1" fill="#EF4444"/>
    <rect x="101" y="128" width="9" height="42" rx="1" fill="#F472B6"/>
    <rect x="112" y="122" width="14" height="48" rx="1" fill="#8B5CF6"/>
    <!-- Snow globe -->
    <circle cx="148" cy="155" r="12" fill="#BAE6FD" opacity="0.6" stroke="#9CA3AF" stroke-width="1"/>
    <rect x="140" y="166" width="16" height="5" rx="2" fill="#6B7280"/>
    <path d="M145 158 L148 150 L151 158" fill="#22C55E" opacity="0.5"/>
    <circle cx="143" cy="148" r="1" fill="white" opacity="0.6"/>
    <circle cx="150" cy="146" r="0.8" fill="white" opacity="0.5"/>
    <circle cx="147" cy="152" r="0.6" fill="white" opacity="0.4"/>
    <!-- More books -->
    <rect x="175" y="126" width="12" height="44" rx="1" fill="#14B8A6"/>
    <rect x="189" y="122" width="10" height="48" rx="1" fill="#F59E0B"/>
    <rect x="201" y="128" width="14" height="42" rx="1" fill="#EF4444"/>
    <rect x="217" y="124" width="9" height="46" rx="1" fill="#3B82F6"/>
    <rect x="228" y="130" width="12" height="40" rx="1" fill="#EC4899"/>
    <rect x="242" y="126" width="10" height="44" rx="1" fill="#22C55E"/>
    <rect x="254" y="122" width="13" height="48" rx="1" fill="#8B5CF6"/>
    <rect x="269" y="128" width="11" height="42" rx="1" fill="#0EA5E9"/>
    <rect x="282" y="124" width="9" height="46" rx="1" fill="#F472B6"/>
    <rect x="293" y="130" width="14" height="40" rx="1" fill="#EAB308"/>
    <rect x="309" y="126" width="10" height="44" rx="1" fill="#6366F1"/>
    <rect x="321" y="122" width="12" height="48" rx="1" fill="#EF4444"/>
    <rect x="335" y="128" width="13" height="42" rx="1" fill="#22C55E"/>
  </g>

  <!-- ======= GLOBE ======= -->
  <g transform="translate(720, 320)">
    <!-- Stand -->
    <rect x="18" y="40" width="4" height="30" rx="1" fill="#6B7280"/>
    <ellipse cx="20" cy="72" rx="14" ry="4" fill="#4B5563"/>
    <!-- Arc stand -->
    <path d="M4 20 Q20 -5 36 20" fill="none" stroke="#9CA3AF" stroke-width="2"/>
    <!-- Globe -->
    <circle cx="20" cy="20" r="20" fill="#60A5FA" stroke="#9CA3AF" stroke-width="1.5"/>
    <!-- Continents -->
    <path d="M10 10 Q15 8 20 12 Q25 10 28 15 Q26 20 22 18 Q18 22 12 18 Q8 14 10 10" fill="#22C55E" opacity="0.6"/>
    <path d="M18 25 Q22 23 26 28 Q24 32 20 30 Q16 32 18 25" fill="#22C55E" opacity="0.5"/>
    <path d="M6 22 Q10 20 12 24 Q10 28 6 26 Q4 24 6 22" fill="#22C55E" opacity="0.4"/>
    <!-- Equator -->
    <ellipse cx="20" cy="20" rx="20" ry="6" fill="none" stroke="#93C5FD" stroke-width="0.5" opacity="0.4"/>
    <!-- Meridian -->
    <ellipse cx="20" cy="20" rx="6" ry="20" fill="none" stroke="#93C5FD" stroke-width="0.5" opacity="0.3"/>
    <!-- Highlight -->
    <circle cx="13" cy="12" r="5" fill="white" opacity="0.2"/>
  </g>

  <!-- ======= ROUND RUG ======= -->
  <ellipse cx="480" cy="465" rx="160" ry="50" fill="url(#libRugCenter)"/>
  <!-- Rug pattern rings -->
  <ellipse cx="480" cy="465" rx="140" ry="44" fill="none" stroke="#FDE68A" stroke-width="2" opacity="0.3"/>
  <ellipse cx="480" cy="465" rx="120" ry="38" fill="none" stroke="#FDE68A" stroke-width="1.5" opacity="0.25"/>
  <ellipse cx="480" cy="465" rx="100" ry="32" fill="none" stroke="#FEF08A" stroke-width="1" opacity="0.2"/>
  <!-- Rug center pattern -->
  <ellipse cx="480" cy="465" rx="50" ry="16" fill="#B91C1C" stroke="#FDE68A" stroke-width="1" opacity="0.3"/>
  <!-- Rug fringe hints -->
  <g stroke="#7F1D1D" stroke-width="0.8" opacity="0.2">
    <line x1="325" y1="462" x2="318" y2="460"/>
    <line x1="330" y1="468" x2="322" y2="467"/>
    <line x1="635" y1="462" x2="642" y2="460"/>
    <line x1="630" y1="468" x2="638" y2="467"/>
  </g>

  <!-- ======= READING NOOK / CUSHIONS ======= -->
  <!-- Big bean bag / cushion 1 -->
  <g transform="translate(420, 410)">
    <ellipse cx="0" cy="15" rx="35" ry="22" fill="url(#libCushion1)"/>
    <ellipse cx="0" cy="10" rx="32" ry="18" fill="#C084FC"/>
    <ellipse cx="-5" cy="6" rx="12" ry="6" fill="#D8B4FE" opacity="0.3"/>
  </g>

  <!-- Cushion 2 -->
  <g transform="translate(520, 415)">
    <ellipse cx="0" cy="12" rx="30" ry="18" fill="url(#libCushion2)"/>
    <ellipse cx="0" cy="8" rx="27" ry="15" fill="#60A5FA"/>
    <ellipse cx="-4" cy="4" rx="10" ry="5" fill="#93C5FD" opacity="0.3"/>
  </g>

  <!-- Cushion 3 (small, round) -->
  <g transform="translate(470, 425)">
    <ellipse cx="0" cy="8" rx="20" ry="14" fill="url(#libCushion3)"/>
    <ellipse cx="0" cy="5" rx="17" ry="11" fill="#F472B6"/>
    <ellipse cx="-3" cy="2" rx="7" ry="4" fill="#F9A8D4" opacity="0.3"/>
  </g>

  <!-- ======= READING LAMP ======= -->
  <g transform="translate(350, 280)">
    <!-- Lamp base -->
    <ellipse cx="0" cy="120" rx="18" ry="5" fill="#6B7280"/>
    <!-- Lamp pole -->
    <rect x="-2" y="20" width="4" height="100" rx="1" fill="#9CA3AF"/>
    <!-- Lamp shade -->
    <path d="M-20 20 Q0 -5 20 20" fill="#F59E0B" stroke="#D97706" stroke-width="1"/>
    <path d="M-20 20 L20 20" fill="none" stroke="#D97706" stroke-width="1"/>
    <!-- Lamp light glow -->
    <ellipse cx="0" cy="30" rx="60" ry="40" fill="url(#libLamp)" filter="url(#libSoftGlow)" opacity="0.6"/>
    <!-- Light rays -->
    <path d="M-15 22 L-40 60" stroke="#FDE68A" stroke-width="0.5" opacity="0.15"/>
    <path d="M0 22 L0 70" stroke="#FDE68A" stroke-width="0.5" opacity="0.15"/>
    <path d="M15 22 L40 60" stroke="#FDE68A" stroke-width="0.5" opacity="0.15"/>
  </g>

  <!-- ======= OPEN BOOK ON FLOOR ======= -->
  <g transform="translate(480, 440)">
    <path d="M-25 5 Q-25 -2 -12 -3 L0 0 L12 -3 Q25 -2 25 5 L22 8 Q12 5 0 6 Q-12 5 -22 8 Z" fill="white" stroke="#D1D5DB" stroke-width="0.5"/>
    <line x1="0" y1="0" x2="0" y2="6" stroke="#D1D5DB" stroke-width="0.5"/>
    <!-- Text lines -->
    <line x1="-20" y1="1" x2="-4" y2="2" stroke="#D1D5DB" stroke-width="0.4"/>
    <line x1="-18" y1="3" x2="-6" y2="4" stroke="#D1D5DB" stroke-width="0.4"/>
    <line x1="4" y1="2" x2="20" y2="1" stroke="#D1D5DB" stroke-width="0.4"/>
    <line x1="6" y1="4" x2="18" y2="3" stroke="#D1D5DB" stroke-width="0.4"/>
  </g>

  <!-- ======= DECORATIVE ELEMENTS ======= -->
  <!-- Hanging star decoration from ceiling -->
  <g transform="translate(480, 8)">
    <line x1="0" y1="0" x2="0" y2="25" stroke="#D1D5DB" stroke-width="0.5"/>
    <path d="M0 25 L3 33 L11 33 L5 38 L7 46 L0 42 L-7 46 L-5 38 L-11 33 L-3 33 Z" fill="#FDE68A" stroke="#F59E0B" stroke-width="0.5" opacity="0.6"/>
  </g>

  <!-- Paper lantern -->
  <g transform="translate(600, 10)">
    <line x1="0" y1="0" x2="0" y2="12" stroke="#D1D5DB" stroke-width="0.5"/>
    <ellipse cx="0" cy="26" rx="12" ry="16" fill="#FCA5A5" opacity="0.5" stroke="#EF4444" stroke-width="0.5"/>
    <ellipse cx="0" cy="26" rx="8" ry="12" fill="#FDE68A" opacity="0.2"/>
    <line x1="-6" y1="16" x2="6" y2="16" stroke="#EF4444" stroke-width="0.5" opacity="0.5"/>
    <line x1="-6" y1="36" x2="6" y2="36" stroke="#EF4444" stroke-width="0.5" opacity="0.5"/>
  </g>

  <!-- ======= WARM AMBIENT LIGHT ======= -->
  <rect width="960" height="540" fill="#FEF08A" opacity="0.04"/>

  <!-- Magical sparkles -->
  <g opacity="0.4">
    <circle cx="400" cy="100" r="1.5" fill="#FDE68A"/>
    <circle cx="550" cy="80" r="1" fill="#FDE68A"/>
    <circle cx="350" cy="150" r="1.2" fill="#FDE68A"/>
    <circle cx="620" cy="130" r="0.8" fill="#FDE68A"/>
    <circle cx="480" cy="180" r="1" fill="#FDE68A"/>
    <circle cx="300" cy="300" r="1.3" fill="#FDE68A"/>
    <circle cx="650" cy="250" r="0.9" fill="#FDE68A"/>
  </g>
</svg>