<svg xmlns="http://www.w3.org/2000/svg" viewBox="0 0 1344 768">
  <defs>
    <linearGradient id="cidade-sky" x1="0" y1="0" x2="0" y2="1">
      <stop offset="0%" stop-color="#4fc3f7"/>
      <stop offset="100%" stop-color="#b3e5fc"/>
    </linearGradient>
    <linearGradient id="cidade-building1" x1="0" y1="0" x2="1" y2="0">
      <stop offset="0%" stop-color="#ef9a9a"/>
      <stop offset="100%" stop-color="#e57373"/>
    </linearGradient>
    <linearGradient id="cidade-building2" x1="0" y1="0" x2="1" y2="0">
      <stop offset="0%" stop-color="#90caf9"/>
      <stop offset="100%" stop-color="#64b5f6"/>
    </linearGradient>
    <linearGradient id="cidade-building3" x1="0" y1="0" x2="1" y2="0">
      <stop offset="0%" stop-color="#fff59d"/>
      <stop offset="100%" stop-color="#fff176"/>
    </linearGradient>
    <linearGradient id="cidade-building4" x1="0" y1="0" x2="1" y2="0">
      <stop offset="0%" stop-color="#ce93d8"/>
      <stop offset="100%" stop-color="#ba68c8"/>
    </linearGradient>
    <linearGradient id="cidade-building5" x1="0" y1="0" x2="1" y2="0">
      <stop offset="0%" stop-color="#a5d6a7"/>
      <stop offset="100%" stop-color="#81c784"/>
    </linearGradient>
    <linearGradient id="cidade-building6" x1="0" y1="0" x2="1" y2="0">
      <stop offset="0%" stop-color="#ffcc80"/>
      <stop offset="100%" stop-color="#ffb74d"/>
    </linearGradient>
    <linearGradient id="cidade-sidewalk" x1="0" y1="0" x2="0" y2="1">
      <stop offset="0%" stop-color="#e0e0e0"/>
      <stop offset="100%" stop-color="#bdbdbd"/>
    </linearGradient>
    <linearGradient id="cidade-road" x1="0" y1="0" x2="0" y2="1">
      <stop offset="0%" stop-color="#616161"/>
      <stop offset="100%" stop-color="#424242"/>
    </linearGradient>
    <linearGradient id="cidade-tree-trunk" x1="0" y1="0" x2="1" y2="0">
      <stop offset="0%" stop-color="#5d4037"/>
      <stop offset="50%" stop-color="#795548"/>
      <stop offset="100%" stop-color="#4e342e"/>
    </linearGradient>
    <radialGradient id="cidade-tree-canopy" cx="0.5" cy="0.5" r="0.5">
      <stop offset="0%" stop-color="#66bb6a"/>
      <stop offset="100%" stop-color="#2e7d32"/>
    </radialGradient>
    <linearGradient id="cidade-awning1" x1="0" y1="0" x2="0" y2="1">
      <stop offset="0%" stop-color="#e53935"/>
      <stop offset="100%" stop-color="#c62828"/>
    </linearGradient>
    <linearGradient id="cidade-awning2" x1="0" y1="0" x2="0" y2="1">
      <stop offset="0%" stop-color="#43a047"/>
      <stop offset="100%" stop-color="#2e7d32"/>
    </linearGradient>
    <linearGradient id="cidade-lamp" x1="0" y1="0" x2="0" y2="1">
      <stop offset="0%" stop-color="#37474f"/>
      <stop offset="100%" stop-color="#263238"/>
    </linearGradient>
  </defs>

  <!-- Sky -->
  <rect width="1344" height="768" fill="url(#cidade-sky)"/>

  <!-- Clouds -->
  <g fill="white" opacity="0.8">
    <ellipse cx="200" cy="80" rx="80" ry="30"/>
    <ellipse cx="250" cy="70" rx="60" ry="25"/>
    <ellipse cx="160" cy="75" rx="50" ry="22"/>

    <ellipse cx="800" cy="60" rx="70" ry="28"/>
    <ellipse cx="850" cy="52" rx="55" ry="22"/>
    <ellipse cx="760" cy="56" rx="45" ry="20"/>

    <ellipse cx="1150" cy="90" rx="65" ry="25"/>
    <ellipse cx="1190" cy="82" rx="50" ry="20"/>
  </g>

  <!-- Background buildings (far) -->
  <g opacity="0.5">
    <rect x="0" y="200" width="80" height="400" fill="#b0bec5"/>
    <rect x="90" y="240" width="60" height="360" fill="#cfd8dc"/>
    <rect x="160" y="180" width="70" height="420" fill="#b0bec5"/>
    <rect x="1120" y="220" width="75" height="380" fill="#cfd8dc"/>
    <rect x="1200" y="190" width="65" height="410" fill="#b0bec5"/>
    <rect x="1275" y="250" width="70" height="350" fill="#cfd8dc"/>
  </g>

  <!-- Main buildings -->
  <!-- Building 1 - Pink/Red bakery -->
  <rect x="30" y="280" width="180" height="320" fill="url(#cidade-building1)"/>
  <rect x="30" y="275" width="180" height="12" fill="#c62828" rx="2"/>
  <!-- Windows -->
  <rect x="55" y="310" width="40" height="35" rx="3" fill="#e3f2fd"/>
  <rect x="55" y="310" width="40" height="35" rx="3" stroke="#c62828" stroke-width="2" fill="none"/>
  <line x1="75" y1="310" x2="75" y2="345" stroke="#c62828" stroke-width="1.5"/>
  <rect x="145" y="310" width="40" height="35" rx="3" fill="#e3f2fd"/>
  <rect x="145" y="310" width="40" height="35" rx="3" stroke="#c62828" stroke-width="2" fill="none"/>
  <line x1="165" y1="310" x2="165" y2="345" stroke="#c62828" stroke-width="1.5"/>
  <rect x="55" y="380" width="40" height="35" rx="3" fill="#e3f2fd"/>
  <rect x="55" y="380" width="40" height="35" rx="3" stroke="#c62828" stroke-width="2" fill="none"/>
  <rect x="145" y="380" width="40" height="35" rx="3" fill="#e3f2fd"/>
  <rect x="145" y="380" width="40" height="35" rx="3" stroke="#c62828" stroke-width="2" fill="none"/>
  <!-- Shop front -->
  <rect x="50" y="470" width="140" height="90" rx="3" fill="#e3f2fd"/>
  <rect x="50" y="470" width="140" height="90" rx="3" stroke="#c62828" stroke-width="2" fill="none"/>
  <!-- Awning -->
  <path d="M40,465 L200,465 L210,490 L30,490Z" fill="url(#cidade-awning1)"/>
  <!-- Door -->
  <rect x="100" y="520" width="40" height="60" rx="3" fill="#8d6e63"/>
  <circle cx="132" cy="555" r="3" fill="#ffd54f"/>
  <!-- Sign -->
  <rect x="70" y="450" width="100" height="18" rx="3" fill="#fff9c4"/>
  <text x="120" y="464" text-anchor="middle" font-size="11" fill="#c62828" font-family="sans-serif" font-weight="bold">PADARIA</text>

  <!-- Building 2 - Blue -->
  <rect x="220" y="240" width="160" height="360" fill="url(#cidade-building2)"/>
  <rect x="220" y="235" width="160" height="12" fill="#1976d2" rx="2"/>
  <rect x="245" y="270" width="35" height="30" rx="3" fill="#e3f2fd" stroke="#1976d2" stroke-width="2"/>
  <rect x="320" y="270" width="35" height="30" rx="3" fill="#e3f2fd" stroke="#1976d2" stroke-width="2"/>
  <rect x="245" y="330" width="35" height="30" rx="3" fill="#e3f2fd" stroke="#1976d2" stroke-width="2"/>
  <rect x="320" y="330" width="35" height="30" rx="3" fill="#e3f2fd" stroke="#1976d2" stroke-width="2"/>
  <rect x="245" y="390" width="35" height="30" rx="3" fill="#e3f2fd" stroke="#1976d2" stroke-width="2"/>
  <rect x="320" y="390" width="35" height="30" rx="3" fill="#e3f2fd" stroke="#1976d2" stroke-width="2"/>
  <rect x="240" y="470" width="120" height="90" rx="3" fill="#e3f2fd" stroke="#1976d2" stroke-width="2"/>
  <rect x="280" y="520" width="40" height="60" rx="3" fill="#5d4037"/>
  <circle cx="312" cy="555" r="3" fill="#ffd54f"/>

  <!-- Building 3 - Yellow shop -->
  <rect x="390" y="300" width="170" height="300" fill="url(#cidade-building3)"/>
  <rect x="390" y="295" width="170" height="12" fill="#f9a825" rx="2"/>
  <rect x="415" y="330" width="40" height="35" rx="3" fill="#e3f2fd" stroke="#f9a825" stroke-width="2"/>
  <rect x="500" y="330" width="40" height="35" rx="3" fill="#e3f2fd" stroke="#f9a825" stroke-width="2"/>
  <rect x="415" y="400" width="40" height="35" rx="3" fill="#e3f2fd" stroke="#f9a825" stroke-width="2"/>
  <rect x="500" y="400" width="40" height="35" rx="3" fill="#e3f2fd" stroke="#f9a825" stroke-width="2"/>
  <!-- Shop -->
  <rect x="410" y="470" width="130" height="90" rx="3" fill="#e3f2fd" stroke="#f9a825" stroke-width="2"/>
  <path d="M400,465 L550,465 L560,490 L390,490Z" fill="url(#cidade-awning2)"/>
  <rect x="455" y="520" width="40" height="60" rx="3" fill="#6d4c41"/>
  <circle cx="487" cy="555" r="3" fill="#ffd54f"/>
  <rect x="420" y="450" width="110" height="18" rx="3" fill="#fff9c4"/>
  <text x="475" y="464" text-anchor="middle" font-size="11" fill="#2e7d32" font-family="sans-serif" font-weight="bold">LIVRARIA</text>

  <!-- Building 4 - Purple -->
  <rect x="570" y="260" width="150" height="340" fill="url(#cidade-building4)"/>
  <rect x="570" y="255" width="150" height="12" fill="#8e24aa" rx="2"/>
  <rect x="595" y="290" width="35" height="30" rx="3" fill="#e3f2fd" stroke="#8e24aa" stroke-width="2"/>
  <rect x="660" y="290" width="35" height="30" rx="3" fill="#e3f2fd" stroke="#8e24aa" stroke-width="2"/>
  <rect x="595" y="350" width="35" height="30" rx="3" fill="#e3f2fd" stroke="#8e24aa" stroke-width="2"/>
  <rect x="660" y="350" width="35" height="30" rx="3" fill="#e3f2fd" stroke="#8e24aa" stroke-width="2"/>
  <rect x="595" y="410" width="35" height="30" rx="3" fill="#e3f2fd" stroke="#8e24aa" stroke-width="2"/>
  <rect x="660" y="410" width="35" height="30" rx="3" fill="#e3f2fd" stroke="#8e24aa" stroke-width="2"/>
  <rect x="615" y="520" width="40" height="60" rx="3" fill="#5d4037"/>
  <circle cx="647" cy="555" r="3" fill="#ffd54f"/>

  <!-- Building 5 - Green -->
  <rect x="730" y="310" width="160" height="290" fill="url(#cidade-building5)"/>
  <rect x="730" y="305" width="160" height="12" fill="#388e3c" rx="2"/>
  <rect x="755" y="340" width="35" height="30" rx="3" fill="#e3f2fd" stroke="#388e3c" stroke-width="2"/>
  <rect x="830" y="340" width="35" height="30" rx="3" fill="#e3f2fd" stroke="#388e3c" stroke-width="2"/>
  <rect x="755" y="400" width="35" height="30" rx="3" fill="#e3f2fd" stroke="#388e3c" stroke-width="2"/>
  <rect x="830" y="400" width="35" height="30" rx="3" fill="#e3f2fd" stroke="#388e3c" stroke-width="2"/>
  <rect x="770" y="520" width="50" height="60" rx="3" fill="#5d4037"/>
  <circle cx="812" cy="555" r="3" fill="#ffd54f"/>

  <!-- Building 6 - Orange -->
  <rect x="900" y="270" width="170" height="330" fill="url(#cidade-building6)"/>
  <rect x="900" y="265" width="170" height="12" fill="#ef6c00" rx="2"/>
  <rect x="925" y="300" width="40" height="35" rx="3" fill="#e3f2fd" stroke="#ef6c00" stroke-width="2"/>
  <rect x="1010" y="300" width="40" height="35" rx="3" fill="#e3f2fd" stroke="#ef6c00" stroke-width="2"/>
  <rect x="925" y="370" width="40" height="35" rx="3" fill="#e3f2fd" stroke="#ef6c00" stroke-width="2"/>
  <rect x="1010" y="370" width="40" height="35" rx="3" fill="#e3f2fd" stroke="#ef6c00" stroke-width="2"/>
  <rect x="960" y="520" width="45" height="60" rx="3" fill="#6d4c41"/>
  <circle cx="997" cy="555" r="3" fill="#ffd54f"/>

  <!-- Building 7 - Tall pink -->
  <rect x="1080" y="220" width="140" height="380" fill="#f48fb1"/>
  <rect x="1080" y="215" width="140" height="12" fill="#c2185b" rx="2"/>
  <rect x="1105" y="250" width="30" height="28" rx="3" fill="#e3f2fd" stroke="#c2185b" stroke-width="2"/>
  <rect x="1165" y="250" width="30" height="28" rx="3" fill="#e3f2fd" stroke="#c2185b" stroke-width="2"/>
  <rect x="1105" y="310" width="30" height="28" rx="3" fill="#e3f2fd" stroke="#c2185b" stroke-width="2"/>
  <rect x="1165" y="310" width="30" height="28" rx="3" fill="#e3f2fd" stroke="#c2185b" stroke-width="2"/>
  <rect x="1105" y="370" width="30" height="28" rx="3" fill="#e3f2fd" stroke="#c2185b" stroke-width="2"/>
  <rect x="1165" y="370" width="30" height="28" rx="3" fill="#e3f2fd" stroke="#c2185b" stroke-width="2"/>
  <rect x="1105" y="430" width="30" height="28" rx="3" fill="#e3f2fd" stroke="#c2185b" stroke-width="2"/>
  <rect x="1165" y="430" width="30" height="28" rx="3" fill="#e3f2fd" stroke="#c2185b" stroke-width="2"/>
  <rect x="1130" y="520" width="40" height="60" rx="3" fill="#5d4037"/>

  <!-- Sidewalk -->
  <rect x="0" y="580" width="1344" height="40" fill="url(#cidade-sidewalk)"/>
  <!-- Sidewalk lines -->
  <g stroke="#9e9e9e" stroke-width="0.5" opacity="0.5">
    <line x1="0" y1="595" x2="1344" y2="595"/>
    <line x1="50" y1="580" x2="50" y2="620"/>
    <line x1="130" y1="580" x2="130" y2="620"/>
    <line x1="210" y1="580" x2="210" y2="620"/>
    <line x1="290" y1="580" x2="290" y2="620"/>
    <line x1="370" y1="580" x2="370" y2="620"/>
    <line x1="450" y1="580" x2="450" y2="620"/>
    <line x1="530" y1="580" x2="530" y2="620"/>
    <line x1="610" y1="580" x2="610" y2="620"/>
    <line x1="690" y1="580" x2="690" y2="620"/>
    <line x1="770" y1="580" x2="770" y2="620"/>
    <line x1="850" y1="580" x2="850" y2="620"/>
    <line x1="930" y1="580" x2="930" y2="620"/>
    <line x1="1010" y1="580" x2="1010" y2="620"/>
    <line x1="1090" y1="580" x2="1090" y2="620"/>
    <line x1="1170" y1="580" x2="1170" y2="620"/>
    <line x1="1250" y1="580" x2="1250" y2="620"/>
  </g>

  <!-- Road -->
  <rect x="0" y="620" width="1344" height="148" fill="url(#cidade-road)"/>
  <!-- Road markings -->
  <g fill="#ffd54f" opacity="0.7">
    <rect x="50" y="690" width="60" height="6" rx="2"/>
    <rect x="170" y="690" width="60" height="6" rx="2"/>
    <rect x="290" y="690" width="60" height="6" rx="2"/>
    <rect x="410" y="690" width="60" height="6" rx="2"/>
    <rect x="530" y="690" width="60" height="6" rx="2"/>
    <rect x="650" y="690" width="60" height="6" rx="2"/>
    <rect x="770" y="690" width="60" height="6" rx="2"/>
    <rect x="890" y="690" width="60" height="6" rx="2"/>
    <rect x="1010" y="690" width="60" height="6" rx="2"/>
    <rect x="1130" y="690" width="60" height="6" rx="2"/>
    <rect x="1250" y="690" width="60" height="6" rx="2"/>
  </g>

  <!-- Trees -->
  <g>
    <rect x="167" y="480" width="12" height="100" fill="url(#cidade-tree-trunk)"/>
    <circle cx="173" cy="460" r="35" fill="url(#cidade-tree-canopy)"/>
    <circle cx="158" cy="475" r="25" fill="#43a047"/>
    <circle cx="188" cy="475" r="25" fill="#388e3c"/>

    <rect x="667" y="480" width="12" height="100" fill="url(#cidade-tree-trunk)"/>
    <circle cx="673" cy="460" r="35" fill="url(#cidade-tree-canopy)"/>
    <circle cx="658" cy="475" r="25" fill="#43a047"/>
    <circle cx="688" cy="475" r="25" fill="#388e3c"/>

    <rect x="1067" y="480" width="12" height="100" fill="url(#cidade-tree-trunk)"/>
    <circle cx="1073" cy="460" r="35" fill="url(#cidade-tree-canopy)"/>
    <circle cx="1058" cy="475" r="25" fill="#43a047"/>
    <circle cx="1088" cy="475" r="25" fill="#388e3c"/>
  </g>

  <!-- Lamp posts -->
  <g fill="url(#cidade-lamp)">
    <rect x="348" y="440" width="6" height="140" rx="2"/>
    <ellipse cx="351" cy="438" rx="12" ry="8"/>
    <circle cx="351" cy="432" r="6" fill="#fff9c4" opacity="0.6"/>

    <rect x="848" y="440" width="6" height="140" rx="2"/>
    <ellipse cx="851" cy="438" rx="12" ry="8"/>
    <circle cx="851" cy="432" r="6" fill="#fff9c4" opacity="0.6"/>
  </g>

  <!-- Flower pots on sidewalk -->
  <g>
    <rect x="500" y="565" width="20" height="15" rx="2" fill="#8d6e63"/>
    <circle cx="505" cy="560" r="5" fill="#e91e63"/>
    <circle cx="515" cy="558" r="5" fill="#f06292"/>
    <circle cx="510" cy="555" r="4" fill="#ec407a"/>

    <rect x="780" y="565" width="20" height="15" rx="2" fill="#8d6e63"/>
    <circle cx="785" cy="560" r="5" fill="#ffeb3b"/>
    <circle cx="795" cy="558" r="5" fill="#fdd835"/>
    <circle cx="790" cy="555" r="4" fill="#fbc02d"/>
  </g>

  <!-- Crosswalk -->
  <g fill="white" opacity="0.8">
    <rect x="540" y="620" width="8" height="148"/>
    <rect x="555" y="620" width="8" height="148"/>
    <rect x="570" y="620" width="8" height="148"/>
    <rect x="585" y="620" width="8" height="148"/>
    <rect x="600" y="620" width="8" height="148"/>
    <rect x="615" y="620" width="8" height="148"/>
    <rect x="630" y="620" width="8" height="148"/>
  </g>
</svg>