<svg xmlns="http://www.w3.org/2000/svg" viewBox="0 0 1344 768">
  <defs>
    <linearGradient id="cozinha-wall" x1="0" y1="0" x2="0" y2="1">
      <stop offset="0%" stop-color="#fff9c4"/>
      <stop offset="100%" stop-color="#fff59d"/>
    </linearGradient>
    <linearGradient id="cozinha-floor" x1="0" y1="0" x2="0" y2="1">
      <stop offset="0%" stop-color="#efebe9"/>
      <stop offset="100%" stop-color="#d7ccc8"/>
    </linearGradient>
    <linearGradient id="cozinha-counter" x1="0" y1="0" x2="0" y2="1">
      <stop offset="0%" stop-color="#8d6e63"/>
      <stop offset="100%" stop-color="#6d4c41"/>
    </linearGradient>
    <linearGradient id="cozinha-counter-top" x1="0" y1="0" x2="0" y2="1">
      <stop offset="0%" stop-color="#e0e0e0"/>
      <stop offset="100%" stop-color="#bdbdbd"/>
    </linearGradient>
    <linearGradient id="cozinha-fridge" x1="0" y1="0" x2="1" y2="0">
      <stop offset="0%" stop-color="#eceff1"/>
      <stop offset="40%" stop-color="#ffffff"/>
      <stop offset="100%" stop-color="#cfd8dc"/>
    </linearGradient>
    <linearGradient id="cozinha-stove" x1="0" y1="0" x2="1" y2="0">
      <stop offset="0%" stop-color="#e0e0e0"/>
      <stop offset="40%" stop-color="#f5f5f5"/>
      <stop offset="100%" stop-color="#bdbdbd"/>
    </linearGradient>
    <linearGradient id="cozinha-cabinet" x1="0" y1="0" x2="0" y2="1">
      <stop offset="0%" stop-color="#a1887f"/>
      <stop offset="100%" stop-color="#8d6e63"/>
    </linearGradient>
    <linearGradient id="cozinha-table" x1="0" y1="0" x2="0" y2="1">
      <stop offset="0%" stop-color="#ffcc80"/>
      <stop offset="100%" stop-color="#ffb74d"/>
    </linearGradient>
    <linearGradient id="cozinha-window" x1="0" y1="0" x2="0" y2="1">
      <stop offset="0%" stop-color="#64b5f6"/>
      <stop offset="100%" stop-color="#bbdefb"/>
    </linearGradient>
    <linearGradient id="cozinha-tile" x1="0" y1="0" x2="0" y2="1">
      <stop offset="0%" stop-color="#e8f5e9"/>
      <stop offset="100%" stop-color="#c8e6c9"/>
    </linearGradient>
    <radialGradient id="cozinha-plate" cx="0.45" cy="0.45" r="0.5">
      <stop offset="0%" stop-color="#ffffff"/>
      <stop offset="100%" stop-color="#e0e0e0"/>
    </radialGradient>
    <radialGradient id="cozinha-fruit-apple" cx="0.4" cy="0.3" r="0.5">
      <stop offset="0%" stop-color="#ef5350"/>
      <stop offset="100%" stop-color="#c62828"/>
    </radialGradient>
    <radialGradient id="cozinha-fruit-orange" cx="0.4" cy="0.3" r="0.5">
      <stop offset="0%" stop-color="#ffa726"/>
      <stop offset="100%" stop-color="#e65100"/>
    </radialGradient>
  </defs>

  <!-- Wall -->
  <rect width="1344" height="768" fill="url(#cozinha-wall)"/>

  <!-- Tile backsplash -->
  <rect x="0" y="250" width="1344" height="150" fill="url(#cozinha-tile)"/>
  <g stroke="#a5d6a7" stroke-width="0.5" opacity="0.5">
    <line x1="0" y1="280" x2="1344" y2="280"/>
    <line x1="0" y1="310" x2="1344" y2="310"/>
    <line x1="0" y1="340" x2="1344" y2="340"/>
    <line x1="0" y1="370" x2="1344" y2="370"/>
    <line x1="30" y1="250" x2="30" y2="400"/>
    <line x1="60" y1="250" x2="60" y2="400"/>
    <line x1="90" y1="250" x2="90" y2="400"/>
    <line x1="120" y1="250" x2="120" y2="400"/>
    <line x1="150" y1="250" x2="150" y2="400"/>
    <line x1="180" y1="250" x2="180" y2="400"/>
    <line x1="210" y1="250" x2="210" y2="400"/>
    <line x1="240" y1="250" x2="240" y2="400"/>
    <line x1="270" y1="250" x2="270" y2="400"/>
    <line x1="300" y1="250" x2="300" y2="400"/>
    <line x1="330" y1="250" x2="330" y2="400"/>
    <line x1="360" y1="250" x2="360" y2="400"/>
    <line x1="390" y1="250" x2="390" y2="400"/>
    <line x1="420" y1="250" x2="420" y2="400"/>
    <line x1="450" y1="250" x2="450" y2="400"/>
    <line x1="480" y1="250" x2="480" y2="400"/>
    <line x1="510" y1="250" x2="510" y2="400"/>
    <line x1="540" y1="250" x2="540" y2="400"/>
    <line x1="570" y1="250" x2="570" y2="400"/>
    <line x1="600" y1="250" x2="600" y2="400"/>
    <line x1="630" y1="250" x2="630" y2="400"/>
    <line x1="660" y1="250" x2="660" y2="400"/>
    <line x1="690" y1="250" x2="690" y2="400"/>
    <line x1="720" y1="250" x2="720" y2="400"/>
    <line x1="750" y1="250" x2="750" y2="400"/>
    <line x1="780" y1="250" x2="780" y2="400"/>
  </g>

  <!-- Floor -->
  <rect x="0" y="580" width="1344" height="188" fill="url(#cozinha-floor)"/>
  <!-- Checkerboard floor -->
  <g opacity="0.15">
    <rect x="0" y="580" width="60" height="60" fill="#8d6e63"/>
    <rect x="120" y="580" width="60" height="60" fill="#8d6e63"/>
    <rect x="240" y="580" width="60" height="60" fill="#8d6e63"/>
    <rect x="360" y="580" width="60" height="60" fill="#8d6e63"/>
    <rect x="480" y="580" width="60" height="60" fill="#8d6e63"/>
    <rect x="600" y="580" width="60" height="60" fill="#8d6e63"/>
    <rect x="720" y="580" width="60" height="60" fill="#8d6e63"/>
    <rect x="840" y="580" width="60" height="60" fill="#8d6e63"/>
    <rect x="960" y="580" width="60" height="60" fill="#8d6e63"/>
    <rect x="1080" y="580" width="60" height="60" fill="#8d6e63"/>
    <rect x="1200" y="580" width="60" height="60" fill="#8d6e63"/>
    <rect x="1320" y="580" width="24" height="60" fill="#8d6e63"/>
    <rect x="60" y="640" width="60" height="60" fill="#8d6e63"/>
    <rect x="180" y="640" width="60" height="60" fill="#8d6e63"/>
    <rect x="300" y="640" width="60" height="60" fill="#8d6e63"/>
    <rect x="420" y="640" width="60" height="60" fill="#8d6e63"/>
    <rect x="540" y="640" width="60" height="60" fill="#8d6e63"/>
    <rect x="660" y="640" width="60" height="60" fill="#8d6e63"/>
    <rect x="780" y="640" width="60" height="60" fill="#8d6e63"/>
    <rect x="900" y="640" width="60" height="60" fill="#8d6e63"/>
    <rect x="1020" y="640" width="60" height="60" fill="#8d6e63"/>
    <rect x="1140" y="640" width="60" height="60" fill="#8d6e63"/>
    <rect x="1260" y="640" width="60" height="60" fill="#8d6e63"/>
    <rect x="0" y="700" width="60" height="68" fill="#8d6e63"/>
    <rect x="120" y="700" width="60" height="68" fill="#8d6e63"/>
    <rect x="240" y="700" width="60" height="68" fill="#8d6e63"/>
    <rect x="360" y="700" width="60" height="68" fill="#8d6e63"/>
    <rect x="480" y="700" width="60" height="68" fill="#8d6e63"/>
    <rect x="600" y="700" width="60" height="68" fill="#8d6e63"/>
    <rect x="720" y="700" width="60" height="68" fill="#8d6e63"/>
    <rect x="840" y="700" width="60" height="68" fill="#8d6e63"/>
    <rect x="960" y="700" width="60" height="68" fill="#8d6e63"/>
    <rect x="1080" y="700" width="60" height="68" fill="#8d6e63"/>
    <rect x="1200" y="700" width="60" height="68" fill="#8d6e63"/>
    <rect x="1320" y="700" width="24" height="68" fill="#8d6e63"/>
  </g>

  <!-- Upper cabinets -->
  <g>
    <rect x="30" y="50" width="150" height="190" rx="5" fill="url(#cozinha-cabinet)"/>
    <rect x="40" y="60" width="60" height="170" rx="3" fill="#795548"/>
    <rect x="110" y="60" width="60" height="170" rx="3" fill="#795548"/>
    <circle cx="95" cy="145" r="4" fill="#ffd54f"/>
    <circle cx="115" cy="145" r="4" fill="#ffd54f"/>

    <rect x="200" y="50" width="150" height="190" rx="5" fill="url(#cozinha-cabinet)"/>
    <rect x="210" y="60" width="60" height="170" rx="3" fill="#795548"/>
    <rect x="280" y="60" width="60" height="170" rx="3" fill="#795548"/>
    <circle cx="265" cy="145" r="4" fill="#ffd54f"/>
    <circle cx="285" cy="145" r="4" fill="#ffd54f"/>

    <rect x="550" y="50" width="150" height="190" rx="5" fill="url(#cozinha-cabinet)"/>
    <rect x="560" y="60" width="60" height="170" rx="3" fill="#795548"/>
    <rect x="630" y="60" width="60" height="170" rx="3" fill="#795548"/>
    <circle cx="615" cy="145" r="4" fill="#ffd54f"/>
    <circle cx="635" cy="145" r="4" fill="#ffd54f"/>
  </g>

  <!-- Window -->
  <g transform="translate(380,50)">
    <rect x="-5" y="-5" width="150" height="195" rx="5" fill="#795548"/>
    <rect x="0" y="0" width="140" height="185" fill="url(#cozinha-window)"/>
    <line x1="70" y1="0" x2="70" y2="185" stroke="#795548" stroke-width="3"/>
    <line x1="0" y1="92" x2="140" y2="92" stroke="#795548" stroke-width="3"/>
    <!-- Clouds through window -->
    <ellipse cx="40" cy="40" rx="25" ry="10" fill="white" opacity="0.8"/>
    <ellipse cx="110" cy="30" rx="20" ry="8" fill="white" opacity="0.7"/>
    <!-- Window sill -->
    <rect x="-10" y="185" width="160" height="10" rx="3" fill="#8d6e63"/>
    <!-- Small plant on sill -->
    <rect x="55" y="170" width="16" height="18" rx="2" fill="#e57373"/>
    <circle cx="58" cy="165" r="6" fill="#4caf50"/>
    <circle cx="67" cy="163" r="7" fill="#66bb6a"/>
    <circle cx="63" cy="158" r="5" fill="#43a047"/>
  </g>

  <!-- Counter -->
  <rect x="0" y="390" width="780" height="190" fill="url(#cozinha-counter)"/>
  <rect x="0" y="390" width="780" height="12" rx="3" fill="url(#cozinha-counter-top)"/>

  <!-- Lower cabinet doors -->
  <g>
    <rect x="10" y="410" width="70" height="160" rx="3" fill="#795548"/>
    <circle cx="70" cy="490" r="4" fill="#ffd54f"/>
    <rect x="90" y="410" width="70" height="160" rx="3" fill="#795548"/>
    <circle cx="100" cy="490" r="4" fill="#ffd54f"/>
    <rect x="170" y="410" width="70" height="160" rx="3" fill="#795548"/>
    <circle cx="230" cy="490" r="4" fill="#ffd54f"/>
    <rect x="250" y="410" width="70" height="160" rx="3" fill="#795548"/>
    <circle cx="260" cy="490" r="4" fill="#ffd54f"/>
  </g>

  <!-- Sink in counter -->
  <g transform="translate(350,392)">
    <rect x="0" y="0" width="80" height="10" rx="3" fill="#90a4ae"/>
    <rect x="5" y="2" width="70" height="6" rx="2" fill="#78909c"/>
    <!-- Faucet -->
    <rect x="35" y="-20" width="6" height="20" fill="#9e9e9e"/>
    <path d="M30,-20 Q38,-30 46,-20" stroke="#bdbdbd" stroke-width="4" fill="none"/>
    <circle cx="30" cy="-18" r="3" fill="#bdbdbd"/>
  </g>

  <!-- Fridge -->
  <g transform="translate(810,120)">
    <rect x="0" y="0" width="140" height="460" rx="5" fill="url(#cozinha-fridge)"/>
    <!-- Freezer door -->
    <rect x="5" y="5" width="130" height="120" rx="3" fill="#f5f5f5" stroke="#e0e0e0" stroke-width="1"/>
    <rect x="105" y="30" width="20" height="5" rx="2" fill="#bdbdbd"/>
    <!-- Fridge door -->
    <rect x="5" y="135" width="130" height="320" rx="3" fill="#f5f5f5" stroke="#e0e0e0" stroke-width="1"/>
    <rect x="105" y="200" width="20" height="5" rx="2" fill="#bdbdbd"/>
    <!-- Magnets & drawings -->
    <circle cx="40" cy="180" r="8" fill="#e53935" opacity="0.8"/>
    <circle cx="70" cy="170" r="7" fill="#42a5f5" opacity="0.8"/>
    <rect x="25" y="200" width="40" height="50" fill="white" opacity="0.8" transform="rotate(-3,45,225)"/>
    <!-- Child's drawing on paper -->
    <circle cx="45" cy="215" r="8" fill="#fdd835" opacity="0.6"/>
    <path d="M35,230 Q45,225 55,232" stroke="#4caf50" stroke-width="1.5" fill="none" opacity="0.6"/>
    <!-- Star magnet -->
    <polygon points="100,260 103,250 106,260 116,263 106,266 103,276 100,266 90,263" fill="#fdd835" opacity="0.8"/>
  </g>

  <!-- Stove -->
  <g transform="translate(600,340)">
    <rect x="0" y="50" width="170" height="230" rx="5" fill="url(#cozinha-stove)"/>
    <!-- Stovetop -->
    <rect x="0" y="50" width="170" height="12" fill="#e0e0e0"/>
    <!-- Burners -->
    <circle cx="50" cy="56" r="18" fill="none" stroke="#424242" stroke-width="3"/>
    <circle cx="50" cy="56" r="8" fill="none" stroke="#424242" stroke-width="2"/>
    <circle cx="120" cy="56" r="18" fill="none" stroke="#424242" stroke-width="3"/>
    <circle cx="120" cy="56" r="8" fill="none" stroke="#424242" stroke-width="2"/>
    <!-- Oven door -->
    <rect x="10" y="100" width="150" height="120" rx="3" fill="#eeeeee" stroke="#bdbdbd" stroke-width="2"/>
    <rect x="20" y="110" width="130" height="80" rx="2" fill="#212121" opacity="0.1"/>
    <rect x="50" y="85" width="20" height="5" rx="2" fill="#bdbdbd"/>
    <!-- Knobs -->
    <circle cx="30" cy="42" r="6" fill="#e0e0e0" stroke="#bdbdbd" stroke-width="1"/>
    <circle cx="60" cy="42" r="6" fill="#e0e0e0" stroke="#bdbdbd" stroke-width="1"/>
    <circle cx="110" cy="42" r="6" fill="#e0e0e0" stroke="#bdbdbd" stroke-width="1"/>
    <circle cx="140" cy="42" r="6" fill="#e0e0e0" stroke="#bdbdbd" stroke-width="1"/>
    <!-- Pot on stove -->
    <ellipse cx="50" cy="45" rx="22" ry="8" fill="#757575"/>
    <rect x="28" y="25" width="44" height="20" rx="3" fill="#616161"/>
    <ellipse cx="50" cy="25" rx="22" ry="6" fill="#757575"/>
    <line x1="26" y1="35" x2="18" y2="35" stroke="#9e9e9e" stroke-width="3"/>
    <line x1="74" y1="35" x2="82" y2="35" stroke="#9e9e9e" stroke-width="3"/>
    <!-- Steam -->
    <path d="M42,15 Q40,5 43,-5" stroke="rgba(255,255,255,0.4)" stroke-width="2" fill="none"/>
    <path d="M50,13 Q48,0 51,-10" stroke="rgba(255,255,255,0.3)" stroke-width="2" fill="none"/>
    <path d="M58,15 Q56,5 59,-5" stroke="rgba(255,255,255,0.35)" stroke-width="2" fill="none"/>
  </g>

  <!-- Kitchen table -->
  <g transform="translate(980,450)">
    <rect x="0" y="0" width="300" height="12" rx="5" fill="url(#cozinha-table)"/>
    <rect x="20" y="12" width="10" height="118" fill="#f9a825"/>
    <rect x="270" y="12" width="10" height="118" fill="#f9a825"/>
    <line x1="20" y1="80" x2="280" y2="80" stroke="#f9a825" stroke-width="5"/>

    <!-- Plates on table -->
    <ellipse cx="80" cy="-2" rx="25" ry="8" fill="url(#cozinha-plate)"/>
    <ellipse cx="80" cy="-2" rx="18" ry="5" fill="none" stroke="#e0e0e0" stroke-width="1"/>
    <ellipse cx="200" cy="-2" rx="25" ry="8" fill="url(#cozinha-plate)"/>
    <ellipse cx="200" cy="-2" rx="18" ry="5" fill="none" stroke="#e0e0e0" stroke-width="1"/>

    <!-- Glass -->
    <rect x="125" y="-22" width="12" height="20" rx="1" fill="rgba(144,202,249,0.4)" stroke="rgba(144,202,249,0.6)" stroke-width="1"/>
    <ellipse cx="131" cy="-22" rx="6" ry="2" fill="rgba(144,202,249,0.3)"/>

    <!-- Fruit bowl -->
    <ellipse cx="150" cy="-5" rx="30" ry="10" fill="url(#cozinha-plate)"/>
    <circle cx="142" cy="-12" r="8" fill="url(#cozinha-fruit-apple)"/>
    <line x1="142" y1="-20" x2="144" y2="-23" stroke="#4e342e" stroke-width="1.5"/>
    <circle cx="158" cy="-12" r="7" fill="url(#cozinha-fruit-orange)"/>
    <circle cx="148" cy="-18" r="6" fill="#fdd835"/>
  </g>

  <!-- Chairs at table -->
  <g transform="translate(1020,530)">
    <rect x="0" y="0" width="40" height="8" rx="2" fill="#f9a825"/>
    <rect x="0" y="-35" width="40" height="35" rx="3" fill="#ffa726"/>
    <rect x="3" y="8" width="5" height="40" fill="#ef6c00"/>
    <rect x="32" y="8" width="5" height="40" fill="#ef6c00"/>
  </g>
  <g transform="translate(1220,530)">
    <rect x="0" y="0" width="40" height="8" rx="2" fill="#f9a825"/>
    <rect x="0" y="-35" width="40" height="35" rx="3" fill="#ffa726"/>
    <rect x="3" y="8" width="5" height="40" fill="#ef6c00"/>
    <rect x="32" y="8" width="5" height="40" fill="#ef6c00"/>
  </g>

  <!-- Hanging utensils above counter -->
  <g transform="translate(100,290)">
    <line x1="0" y1="0" x2="200" y2="0" stroke="#795548" stroke-width="4"/>
    <!-- Hooks and utensils -->
    <line x1="30" y1="0" x2="30" y2="15" stroke="#9e9e9e" stroke-width="1.5"/>
    <ellipse cx="30" cy="25" rx="8" ry="15" fill="none" stroke="#9e9e9e" stroke-width="2"/>
    <line x1="80" y1="0" x2="80" y2="15" stroke="#9e9e9e" stroke-width="1.5"/>
    <rect x="76" y="15" width="8" height="30" rx="1" fill="#9e9e9e"/>
    <line x1="130" y1="0" x2="130" y2="15" stroke="#9e9e9e" stroke-width="1.5"/>
    <rect x="125" y="15" width="10" height="25" rx="3" fill="#9e9e9e"/>
    <path d="M125,15 L115,25" stroke="#9e9e9e" stroke-width="2"/>
    <line x1="180" y1="0" x2="180" y2="15" stroke="#9e9e9e" stroke-width="1.5"/>
    <rect x="177" y="15" width="6" height="35" rx="1" fill="#9e9e9e"/>
  </g>

  <!-- Clock on wall -->
  <g transform="translate(1150,100)">
    <circle cx="0" cy="0" r="35" fill="white" stroke="#795548" stroke-width="4"/>
    <circle cx="0" cy="0" r="30" fill="white"/>
    <!-- Numbers -->
    <text x="0" y="-20" text-anchor="middle" font-size="8" fill="#424242" font-family="sans-serif">12</text>
    <text x="22" y="3" text-anchor="middle" font-size="8" fill="#424242" font-family="sans-serif">3</text>
    <text x="0" y="26" text-anchor="middle" font-size="8" fill="#424242" font-family="sans-serif">6</text>
    <text x="-22" y="3" text-anchor="middle" font-size="8" fill="#424242" font-family="sans-serif">9</text>
    <!-- Hands -->
    <line x1="0" y1="0" x2="0" y2="-18" stroke="#424242" stroke-width="2"/>
    <line x1="0" y1="0" x2="12" y2="8" stroke="#424242" stroke-width="1.5"/>
    <circle cx="0" cy="0" r="2" fill="#e53935"/>
  </g>

  <!-- Warm ambient light -->
  <rect width="1344" height="768" fill="rgba(255,248,225,0.08)"/>
</svg>