<svg xmlns="http://www.w3.org/2000/svg" viewBox="0 0 960 540">
  <defs>
    <linearGradient id="fSky" x1="0" y1="0" x2="0" y2="1">
      <stop offset="0%" stop-color="#81D4FA"/>
      <stop offset="100%" stop-color="#C8E6C9"/>
    </linearGradient>
  </defs>
  <!-- Sky -->
  <rect width="960" height="540" fill="url(#fSky)"/>
  <!-- Clouds -->
  <ellipse cx="300" cy="60" rx="70" ry="25" fill="white" opacity="0.7"/>
  <ellipse cx="340" cy="55" rx="50" ry="20" fill="white" opacity="0.7"/>
  <ellipse cx="700" cy="80" rx="60" ry="20" fill="white" opacity="0.6"/>
  <!-- Background trees (dense forest) -->
  <rect x="0" y="200" width="960" height="150" fill="#2E7D32"/>
  <!-- Tree tops background -->
  <circle cx="30" cy="220" r="50" fill="#388E3C"/>
  <circle cx="100" cy="200" r="60" fill="#2E7D32"/>
  <circle cx="180" cy="215" r="55" fill="#388E3C"/>
  <circle cx="260" cy="195" r="60" fill="#2E7D32"/>
  <circle cx="340" cy="210" r="55" fill="#388E3C"/>
  <circle cx="420" cy="200" r="60" fill="#2E7D32"/>
  <circle cx="500" cy="215" r="55" fill="#388E3C"/>
  <circle cx="580" cy="195" r="60" fill="#2E7D32"/>
  <circle cx="660" cy="210" r="55" fill="#388E3C"/>
  <circle cx="740" cy="200" r="60" fill="#2E7D32"/>
  <circle cx="820" cy="215" r="55" fill="#388E3C"/>
  <circle cx="900" cy="205" r="60" fill="#2E7D32"/>
  <circle cx="960" cy="215" r="50" fill="#388E3C"/>
  <!-- Clearing / ground -->
  <ellipse cx="480" cy="400" rx="500" ry="160" fill="#66BB6A"/>
  <rect x="0" y="400" width="960" height="140" fill="#4CAF50"/>
  <!-- Ground details -->
  <ellipse cx="480" cy="420" rx="400" ry="30" fill="#66BB6A"/>
  <!-- Left trees framing clearing -->
  <rect x="40" y="280" width="18" height="120" fill="#6D4C41"/>
  <circle cx="49" cy="270" r="45" fill="#43A047"/>
  <circle cx="30" cy="250" r="35" fill="#388E3C"/>
  <circle cx="68" cy="255" r="35" fill="#388E3C"/>
  <rect x="110" y="300" width="16" height="100" fill="#5D4037"/>
  <circle cx="118" cy="290" r="40" fill="#4CAF50"/>
  <circle cx="100" cy="275" r="32" fill="#43A047"/>
  <circle cx="136" cy="278" r="32" fill="#43A047"/>
  <!-- Right trees framing clearing -->
  <rect x="830" y="280" width="18" height="120" fill="#6D4C41"/>
  <circle cx="839" cy="270" r="45" fill="#43A047"/>
  <circle cx="820" cy="250" r="35" fill="#388E3C"/>
  <circle cx="858" cy="255" r="35" fill="#388E3C"/>
  <rect x="890" y="300" width="16" height="100" fill="#5D4037"/>
  <circle cx="898" cy="290" r="40" fill="#4CAF50"/>
  <circle cx="880" cy="275" r="32" fill="#43A047"/>
  <circle cx="916" cy="278" r="32" fill="#43A047"/>
  <!-- Flowers -->
  <circle cx="250" cy="450" r="6" fill="#FF7043"/>
  <circle cx="250" cy="450" r="3" fill="#FFCC02"/>
  <circle cx="700" cy="460" r="6" fill="#AB47BC"/>
  <circle cx="700" cy="460" r="3" fill="#FFCC02"/>
  <circle cx="400" cy="480" r="5" fill="#FF7043"/>
  <circle cx="400" cy="480" r="2.5" fill="#FFCC02"/>
  <circle cx="580" cy="490" r="5" fill="#AB47BC"/>
  <circle cx="580" cy="490" r="2.5" fill="#FFCC02"/>
  <!-- Mushroom -->
  <rect x="178" y="470" width="6" height="12" fill="#F5F5F5"/>
  <ellipse cx="181" cy="470" rx="12" ry="8" fill="#EF5350"/>
  <circle cx="176" cy="467" r="2" fill="white"/>
  <circle cx="185" cy="469" r="2" fill="white"/>
  <!-- Grass bottom -->
  <rect x="0" y="510" width="960" height="30" fill="#388E3C"/>
</svg>