<svg xmlns="http://www.w3.org/2000/svg" viewBox="0 0 80 140"><rect x="5" y="15" width="70" height="125" fill="#BDC3C7"/><rect x="5" y="15" width="70" height="8" fill="#95A5A6"/><rect x="15" y="30" width="12" height="12" fill="#AED6F1"/><rect x="34" y="30" width="12" height="12" fill="#AED6F1"/><rect x="53" y="30" width="12" height="12" fill="#AED6F1"/><rect x="15" y="50" width="12" height="12" fill="#AED6F1"/><rect x="34" y="50" width="12" height="12" fill="#AED6F1"/><rect x="53" y="50" width="12" height="12" fill="#AED6F1"/><rect x="15" y="70" width="12" height="12" fill="#AED6F1"/><rect x="34" y="70" width="12" height="12" fill="#F9E79F"/><rect x="53" y="70" width="12" height="12" fill="#AED6F1"/><rect x="15" y="90" width="12" height="12" fill="#F9E79F"/><rect x="34" y="90" width="12" height="12" fill="#AED6F1"/><rect x="53" y="90" width="12" height="12" fill="#AED6F1"/><rect x="30" y="115" width="20" height="25" fill="#8B6F47"/></svg>
