<svg xmlns="http://www.w3.org/2000/svg" viewBox="0 0 80 60">
  <!-- Boot shaft -->
  <path d="M25 2 L55 2 L58 35 Q60 40 65 42 L75 45 Q78 48 75 52 Q60 55 40 55 Q15 55 10 50 Q8 48 10 45 L22 42 Q24 40 22 35Z" fill="#7b1fa2"/>
  <!-- Boot top fold -->
  <path d="M25 2 L55 2 L56 8 Q40 12 24 8Z" fill="#9c27b0"/>
  <!-- Zipper -->
  <line x1="55" y1="8" x2="58" y2="35" stroke="#ffd54f" stroke-width="1.5"/>
  <!-- Buckle strap -->
  <rect x="20" y="28" width="38" height="5" rx="2" fill="#6a1b9a"/>
  <rect x="35" y="27" width="8" height="7" rx="1" fill="#ffd54f"/>
  <!-- Sole -->
  <path d="M10 48 Q15 52 40 53 Q65 52 75 48 Q78 50 75 53 Q60 57 40 57 Q15 57 8 53 Q6 50 10 48Z" fill="#4a148c"/>
  <!-- Heel -->
  <rect x="52" y="48" width="16" height="8" rx="2" fill="#4a148c"/>
  <!-- Boot shine -->
  <path d="M30 10 L32 10 L30 30" stroke="white" stroke-width="1" opacity="0.2"/>
</svg>