<svg xmlns="http://www.w3.org/2000/svg" viewBox="0 0 80 60">
  <!-- Rain boot body -->
  <path d="M22 3 L52 3 L54 30 Q56 35 62 38 L72 42 Q76 45 74 50 Q65 55 42 55 Q18 55 10 50 Q7 47 10 42 L20 38 Q22 35 20 30Z" fill="#fdd835"/>
  <!-- Boot top band -->
  <rect x="20" y="3" width="34" height="8" rx="3" fill="#f9a825"/>
  <!-- Polka dots -->
  <circle cx="35" cy="18" r="3" fill="white" opacity="0.6"/>
  <circle cx="28" cy="28" r="3" fill="white" opacity="0.6"/>
  <circle cx="45" cy="25" r="3" fill="white" opacity="0.6"/>
  <circle cx="38" cy="35" r="3" fill="white" opacity="0.6"/>
  <!-- Sole -->
  <path d="M10 48 Q18 53 42 53 Q65 53 74 48 Q76 50 74 53 Q65 57 42 57 Q18 57 8 53 Q6 50 10 48Z" fill="#f57f17"/>
  <!-- Boot shine -->
  <path d="M26 10 L28 10 L26 28" stroke="white" stroke-width="1" opacity="0.3"/>
  <!-- Cute duck on boot -->
  <circle cx="50" cy="38" r="4" fill="#ff7043"/>
  <circle cx="52" cy="36" r="2.5" fill="#ff7043"/>
  <circle cx="53" cy="35" r="1" fill="#333"/>
  <path d="M54 36 L57 36 L54 37Z" fill="#ff9800"/>
</svg>