<svg xmlns="http://www.w3.org/2000/svg" viewBox="0 0 80 60">
  <!-- Boot part -->
  <path d="M20 3 L50 3 L52 28 Q54 32 58 35 L60 38 L15 38 L18 35 Q20 32 18 28Z" fill="#f48fb1"/>
  <!-- Boot top -->
  <path d="M20 3 L50 3 L51 8 Q35 12 19 8Z" fill="#e91e63"/>
  <!-- Laces -->
  <line x1="30" y1="12" x2="40" y2="12" stroke="white" stroke-width="1.5"/>
  <line x1="29" y1="17" x2="41" y2="17" stroke="white" stroke-width="1.5"/>
  <line x1="28" y1="22" x2="42" y2="22" stroke="white" stroke-width="1.5"/>
  <line x1="27" y1="27" x2="43" y2="27" stroke="white" stroke-width="1.5"/>
  <!-- Sole/plate -->
  <rect x="12" y="38" width="52" height="5" rx="2" fill="#e0e0e0"/>
  <!-- Wheels -->
  <circle cx="20" cy="50" r="6" fill="#ab47bc"/>
  <circle cx="20" cy="50" r="2" fill="#e0e0e0"/>
  <circle cx="37" cy="50" r="6" fill="#ab47bc"/>
  <circle cx="37" cy="50" r="2" fill="#e0e0e0"/>
  <circle cx="54" cy="50" r="6" fill="#ab47bc"/>
  <circle cx="54" cy="50" r="2" fill="#e0e0e0"/>
  <!-- Wheel axles -->
  <line x1="18" y1="43" x2="18" y2="50" stroke="#9e9e9e" stroke-width="2"/>
  <line x1="37" y1="43" x2="37" y2="50" stroke="#9e9e9e" stroke-width="2"/>
  <line x1="56" y1="43" x2="56" y2="50" stroke="#9e9e9e" stroke-width="2"/>
  <!-- Brake -->
  <circle cx="64" cy="44" r="3" fill="#ff7043"/>
</svg>