<svg xmlns="http://www.w3.org/2000/svg" viewBox="0 0 80 60">
  <!-- Sole -->
  <path d="M12 30 Q8 28 10 25 Q15 20 35 18 Q55 18 68 22 Q75 25 73 30 Q70 38 50 42 Q25 42 12 30Z" fill="#ffb74d"/>
  <!-- Sole bottom -->
  <path d="M12 32 Q15 38 35 42 Q55 42 70 35 Q72 32 70 30 Q65 36 50 40 Q25 40 12 32Z" fill="#f57c00"/>
  <!-- Strap across -->
  <path d="M20 22 Q35 15 55 22" stroke="#e91e63" stroke-width="4" fill="none" stroke-linecap="round"/>
  <!-- Strap 2 -->
  <path d="M25 30 Q40 24 58 30" stroke="#e91e63" stroke-width="4" fill="none" stroke-linecap="round"/>
  <!-- Toe strap -->
  <path d="M15 28 L15 20" stroke="#e91e63" stroke-width="3" stroke-linecap="round"/>
  <!-- Flower decoration -->
  <circle cx="38" cy="16" r="4" fill="#f48fb1"/>
  <circle cx="38" cy="16" r="2" fill="#ffd54f"/>
  <!-- Buckle -->
  <rect x="60" y="20" width="6" height="5" rx="1" fill="#ffd54f"/>
</svg>