<svg xmlns="http://www.w3.org/2000/svg" viewBox="0 0 80 100">
  <!-- Blouse body -->
  <path d="M25 10 Q40 5 55 10 L58 15 Q62 18 68 22 L64 38 L58 34 L58 85 L22 85 L22 34 L16 38 L12 22 Q18 18 22 15Z" fill="#f48fb1"/>
  <!-- Collar ruffles -->
  <path d="M25 10 Q30 14 35 10 Q37 14 40 10 Q43 14 45 10 Q48 14 50 10 Q53 14 55 10" fill="none" stroke="#f06292" stroke-width="2"/>
  <!-- Ruffle layers -->
  <path d="M22 45 Q30 42 40 45 Q50 42 58 45" fill="none" stroke="#f06292" stroke-width="1.5"/>
  <path d="M22 55 Q30 52 40 55 Q50 52 58 55" fill="none" stroke="#f06292" stroke-width="1.5"/>
  <path d="M22 65 Q30 62 40 65 Q50 62 58 65" fill="none" stroke="#f06292" stroke-width="1.5"/>
  <!-- Bottom ruffle -->
  <path d="M22 85 Q28 90 34 85 Q37 90 40 85 Q43 90 46 85 Q49 90 52 85 Q55 90 58 85" fill="none" stroke="#f06292" stroke-width="2"/>
  <!-- Buttons -->
  <circle cx="40" cy="25" r="2" fill="#fff9c4"/>
  <circle cx="40" cy="35" r="2" fill="#fff9c4"/>
  <circle cx="40" cy="45" r="2" fill="#fff9c4"/>
  <circle cx="40" cy="55" r="2" fill="#fff9c4"/>
  <!-- Puff sleeves -->
  <ellipse cx="16" cy="28" rx="8" ry="10" fill="#f8bbd0"/>
  <ellipse cx="64" cy="28" rx="8" ry="10" fill="#f8bbd0"/>
</svg>