<svg xmlns="http://www.w3.org/2000/svg" viewBox="0 0 80 100">
  <!-- Jacket body -->
  <path d="M25 8 L38 5 L38 8 L42 8 L42 5 L55 8 L58 15 Q65 18 72 22 L68 42 L58 36 L60 92 L42 92 L42 50 L38 50 L38 92 L20 92 L22 36 L12 42 L8 22 Q15 18 22 15Z" fill="#37474f"/>
  <!-- Collar -->
  <path d="M25 8 L38 5 L35 18 L25 15Z" fill="#455a64"/>
  <path d="M55 8 L42 5 L45 18 L55 15Z" fill="#455a64"/>
  <!-- Zipper -->
  <line x1="40" y1="10" x2="40" y2="90" stroke="#bdbdbd" stroke-width="2"/>
  <rect x="38" y="30" width="4" height="6" rx="1" fill="#e0e0e0"/>
  <!-- Pockets -->
  <path d="M24 45 L36 42 L36 58 L24 58Z" fill="#263238" opacity="0.4"/>
  <path d="M56 45 L44 42 L44 58 L56 58Z" fill="#263238" opacity="0.4"/>
  <!-- Pocket zippers -->
  <line x1="24" y1="50" x2="36" y2="48" stroke="#9e9e9e" stroke-width="1"/>
  <line x1="56" y1="50" x2="44" y2="48" stroke="#9e9e9e" stroke-width="1"/>
  <!-- Stud details -->
  <circle cx="28" cy="12" r="1.5" fill="#ffd54f"/>
  <circle cx="52" cy="12" r="1.5" fill="#ffd54f"/>
</svg>