<svg xmlns="http://www.w3.org/2000/svg" viewBox="0 0 80 100">
  <!-- Overalls body -->
  <path d="M22 25 L58 25 L60 50 L55 50 L55 95 L42 95 L42 50 L38 50 L38 95 L25 95 L25 50 L20 50Z" fill="#ff7043"/>
  <!-- Bib -->
  <rect x="28" y="12" width="24" height="20" rx="4" fill="#ff7043"/>
  <!-- Straps -->
  <path d="M30 12 L25 0 L30 0 L35 12" fill="#e64a19"/>
  <path d="M50 12 L55 0 L50 0 L45 12" fill="#e64a19"/>
  <!-- Bib pocket -->
  <rect x="33" y="18" width="14" height="10" rx="3" fill="#e64a19" opacity="0.5"/>
  <!-- Buttons -->
  <circle cx="30" cy="14" r="2.5" fill="#ffd54f"/>
  <circle cx="50" cy="14" r="2.5" fill="#ffd54f"/>
  <!-- Side pockets -->
  <path d="M22 35 L32 35 L30 48 L22 46Z" fill="#e64a19" opacity="0.4"/>
  <path d="M58 35 L48 35 L50 48 L58 46Z" fill="#e64a19" opacity="0.4"/>
  <!-- Heart on pocket -->
  <path d="M38 20 Q38 17 40 17 Q42 17 42 20 Q42 23 40 25 Q38 23 38 20Z" fill="#fff9c4" opacity="0.7"/>
</svg>