<svg xmlns="http://www.w3.org/2000/svg" viewBox="0 0 80 100">
  <!-- Skirt -->
  <path d="M25 10 L55 10 Q60 15 65 25 Q72 50 78 95 L2 95 Q8 50 15 25 Q20 15 25 10Z" fill="#ab47bc"/>
  <!-- Waistband -->
  <rect x="22" y="8" width="36" height="10" rx="5" fill="#9c27b0"/>
  <!-- Skirt folds -->
  <path d="M35 20 Q30 55 20 95" stroke="#7b1fa2" stroke-width="1.5" fill="none" opacity="0.4"/>
  <path d="M45 20 Q50 55 60 95" stroke="#7b1fa2" stroke-width="1.5" fill="none" opacity="0.4"/>
  <path d="M40 18 Q40 55 40 95" stroke="#7b1fa2" stroke-width="1.5" fill="none" opacity="0.3"/>
  <!-- Polka dots -->
  <circle cx="30" cy="35" r="3" fill="#e1bee7" opacity="0.7"/>
  <circle cx="50" cy="40" r="3" fill="#e1bee7" opacity="0.7"/>
  <circle cx="22" cy="60" r="3" fill="#e1bee7" opacity="0.7"/>
  <circle cx="40" cy="55" r="3" fill="#e1bee7" opacity="0.7"/>
  <circle cx="58" cy="62" r="3" fill="#e1bee7" opacity="0.7"/>
  <circle cx="15" cy="80" r="3" fill="#e1bee7" opacity="0.7"/>
  <circle cx="35" cy="78" r="3" fill="#e1bee7" opacity="0.7"/>
  <circle cx="55" cy="82" r="3" fill="#e1bee7" opacity="0.7"/>
  <circle cx="68" cy="85" r="3" fill="#e1bee7" opacity="0.7"/>
</svg>