<svg xmlns="http://www.w3.org/2000/svg" viewBox="0 0 80 80">
  <!-- Legs -->
  <rect x="12" y="40" width="5" height="30" fill="#795548" rx="1"/>
  <rect x="63" y="40" width="5" height="30" fill="#795548" rx="1"/>
  <!-- Cross brace -->
  <rect x="12" y="55" width="56" height="4" fill="#6D4C41" rx="1"/>
  <!-- Trough body -->
  <path d="M5 30 L10 50 L70 50 L75 30 Z" fill="#8D6E63"/>
  <!-- Trough inner -->
  <path d="M10 32 L14 48 L66 48 L70 32 Z" fill="#4FC3F7"/>
  <!-- Water surface -->
  <path d="M12 34 L15 46 L65 46 L68 34 Z" fill="#81D4FA"/>
  <!-- Water reflection -->
  <rect x="25" y="38" width="20" height="2" fill="white" opacity="0.3" rx="1"/>
  <rect x="40" y="42" width="15" height="2" fill="white" opacity="0.3" rx="1"/>
  <!-- Trough rim -->
  <rect x="4" y="28" width="72" height="5" fill="#A1887F" rx="2"/>
  <!-- Metal bands -->
  <rect x="20" y="30" width="3" height="20" fill="#9E9E9E" rx="1"/>
  <rect x="57" y="30" width="3" height="20" fill="#9E9E9E" rx="1"/>
  <!-- Bolts -->
  <circle cx="21.5" cy="35" r="1.5" fill="#757575"/>
  <circle cx="58.5" cy="35" r="1.5" fill="#757575"/>
</svg>