<svg xmlns="http://www.w3.org/2000/svg" viewBox="0 0 960 540">
  <!-- Sky -->
  <rect width="960" height="540" fill="#81D4FA"/>
  <!-- Sun -->
  <circle cx="800" cy="70" r="50" fill="#FFD54F"/>
  <!-- Clouds -->
  <ellipse cx="180" cy="60" rx="55" ry="22" fill="#fff" opacity="0.85"/>
  <ellipse cx="220" cy="50" rx="45" ry="18" fill="#fff" opacity="0.85"/>
  <ellipse cx="500" cy="80" rx="50" ry="18" fill="#fff" opacity="0.8"/>
  <!-- Distant city skyline -->
  <rect x="0" y="180" width="40" height="80" fill="#B0BEC5" rx="2"/>
  <rect x="45" y="160" width="30" height="100" fill="#90A4AE" rx="2"/>
  <rect x="80" y="190" width="35" height="70" fill="#B0BEC5" rx="2"/>
  <rect x="850" y="170" width="35" height="90" fill="#90A4AE" rx="2"/>
  <rect x="890" y="185" width="40" height="75" fill="#B0BEC5" rx="2"/>
  <rect x="935" y="160" width="30" height="100" fill="#90A4AE" rx="2"/>
  <!-- Main grass area -->
  <rect y="260" width="960" height="280" fill="#66BB6A"/>
  <!-- Rolling hills -->
  <ellipse cx="200" cy="270" rx="200" ry="30" fill="#4CAF50"/>
  <ellipse cx="700" cy="275" rx="250" ry="25" fill="#4CAF50"/>
  <!-- Pond -->
  <ellipse cx="700" cy="380" rx="100" ry="45" fill="#42A5F5"/>
  <ellipse cx="690" cy="375" rx="80" ry="35" fill="#64B5F6"/>
  <!-- Ducks on pond -->
  <ellipse cx="670" cy="370" rx="6" ry="4" fill="#FFD54F"/>
  <circle cx="665" cy="368" r="3" fill="#FFD54F"/>
  <ellipse cx="720" cy="385" rx="6" ry="4" fill="#FFD54F"/>
  <circle cx="715" cy="383" r="3" fill="#FFD54F"/>
  <!-- Walking path (curved) -->
  <path d="M0 420 Q150 380 300 420 Q450 460 600 420 Q750 380 960 420" fill="none" stroke="#BCAAA4" stroke-width="28" stroke-linecap="round"/>
  <path d="M0 420 Q150 380 300 420 Q450 460 600 420 Q750 380 960 420" fill="none" stroke="#D7CCC8" stroke-width="22" stroke-linecap="round"/>
  <!-- Large trees -->
  <rect x="148" y="290" width="10" height="50" fill="#795548" rx="3"/>
  <circle cx="153" cy="275" r="30" fill="#388E3C"/>
  <circle cx="140" cy="285" r="22" fill="#43A047"/>
  <circle cx="168" cy="282" r="24" fill="#2E7D32"/>
  <rect x="378" y="300" width="10" height="45" fill="#795548" rx="3"/>
  <circle cx="383" cy="285" r="28" fill="#43A047"/>
  <circle cx="370" cy="295" r="20" fill="#388E3C"/>
  <circle cx="398" cy="290" r="22" fill="#2E7D32"/>
  <rect x="528" y="310" width="8" height="40" fill="#795548" rx="3"/>
  <circle cx="532" cy="298" r="24" fill="#388E3C"/>
  <circle cx="520" cy="305" r="18" fill="#43A047"/>
  <circle cx="545" cy="302" r="20" fill="#2E7D32"/>
  <!-- Flower garden -->
  <ellipse cx="280" cy="480" rx="50" ry="20" fill="#81C784"/>
  <circle cx="260" cy="475" r="5" fill="#EF5350"/>
  <circle cx="275" cy="470" r="5" fill="#FF7043"/>
  <circle cx="290" cy="473" r="5" fill="#E040FB"/>
  <circle cx="300" cy="478" r="5" fill="#FFD54F"/>
  <circle cx="270" cy="483" r="5" fill="#42A5F5"/>
  <circle cx="285" cy="486" r="5" fill="#EF5350"/>
  <!-- Playground area -->
  <rect x="820" y="460" width="100" height="4" fill="#FFE082"/>
  <!-- Swing set -->
  <line x1="840" y1="430" x2="840" y2="460" stroke="#757575" stroke-width="3"/>
  <line x1="900" y1="430" x2="900" y2="460" stroke="#757575" stroke-width="3"/>
  <line x1="835" y1="430" x2="905" y2="430" stroke="#757575" stroke-width="4"/>
  <line x1="860" y1="430" x2="855" y2="455" stroke="#8D6E63" stroke-width="2"/>
  <line x1="860" y1="430" x2="865" y2="455" stroke="#8D6E63" stroke-width="2"/>
  <rect x="852" y="453" width="16" height="4" fill="#42A5F5" rx="2"/>
  <line x1="880" y1="430" x2="875" y2="455" stroke="#8D6E63" stroke-width="2"/>
  <line x1="880" y1="430" x2="885" y2="455" stroke="#8D6E63" stroke-width="2"/>
  <rect x="872" y="453" width="16" height="4" fill="#EF5350" rx="2"/>
  <!-- Bench -->
  <rect x="430" y="438" width="40" height="4" fill="#8D6E63" rx="1"/>
  <rect x="432" y="442" width="4" height="10" fill="#795548"/>
  <rect x="464" y="442" width="4" height="10" fill="#795548"/>
  <rect x="430" y="430" width="4" height="10" fill="#8D6E63"/>
  <rect x="466" y="430" width="4" height="10" fill="#8D6E63"/>
</svg>
