<svg xmlns="http://www.w3.org/2000/svg" viewBox="0 0 960 540">
  <!-- Sky -->
  <rect width="960" height="540" fill="#81D4FA"/>
  <!-- Clouds -->
  <ellipse cx="250" cy="55" rx="60" ry="22" fill="#fff" opacity="0.85"/>
  <ellipse cx="290" cy="48" rx="45" ry="18" fill="#fff" opacity="0.85"/>
  <ellipse cx="700" cy="70" rx="50" ry="20" fill="#fff" opacity="0.8"/>
  <ellipse cx="740" cy="62" rx="40" ry="16" fill="#fff" opacity="0.8"/>
  <!-- Sun -->
  <circle cx="100" cy="80" r="45" fill="#FFD54F"/>
  <!-- Distant treeline -->
  <rect y="200" width="960" height="340" fill="#66BB6A"/>
  <circle cx="50" cy="200" r="30" fill="#4CAF50"/>
  <circle cx="100" cy="195" r="35" fill="#43A047"/>
  <circle cx="160" cy="200" r="28" fill="#4CAF50"/>
  <circle cx="300" cy="198" r="32" fill="#43A047"/>
  <circle cx="350" cy="195" r="28" fill="#4CAF50"/>
  <circle cx="550" cy="200" r="30" fill="#43A047"/>
  <circle cx="600" cy="195" r="35" fill="#4CAF50"/>
  <circle cx="750" cy="198" r="30" fill="#43A047"/>
  <circle cx="800" cy="195" r="28" fill="#4CAF50"/>
  <circle cx="900" cy="200" r="32" fill="#43A047"/>
  <circle cx="950" cy="198" r="25" fill="#4CAF50"/>
  <!-- Green lawns -->
  <rect y="250" width="960" height="290" fill="#81C784"/>
  <!-- Main street (horizontal) -->
  <rect x="0" y="350" width="960" height="50" fill="#757575"/>
  <line x1="0" y1="375" x2="960" y2="375" stroke="#FFF" stroke-width="2" stroke-dasharray="20 15"/>
  <!-- Side streets (vertical) -->
  <rect x="200" y="250" width="36" height="100" fill="#9E9E9E"/>
  <rect x="500" y="250" width="36" height="100" fill="#9E9E9E"/>
  <rect x="750" y="250" width="36" height="100" fill="#9E9E9E"/>
  <rect x="200" y="400" width="36" height="140" fill="#9E9E9E"/>
  <rect x="500" y="400" width="36" height="140" fill="#9E9E9E"/>
  <rect x="750" y="400" width="36" height="140" fill="#9E9E9E"/>
  <!-- Sidewalks along main street -->
  <rect x="0" y="345" width="960" height="5" fill="#BDBDBD"/>
  <rect x="0" y="400" width="960" height="5" fill="#BDBDBD"/>
  <!-- Fence sections -->
  <line x1="30" y1="300" x2="180" y2="300" stroke="#8D6E63" stroke-width="3"/>
  <line x1="260" y1="300" x2="480" y2="300" stroke="#8D6E63" stroke-width="3"/>
  <line x1="560" y1="300" x2="730" y2="300" stroke="#8D6E63" stroke-width="3"/>
  <!-- Fence posts -->
  <rect x="30" y="290" width="4" height="16" fill="#8D6E63"/>
  <rect x="80" y="290" width="4" height="16" fill="#8D6E63"/>
  <rect x="130" y="290" width="4" height="16" fill="#8D6E63"/>
  <rect x="180" y="290" width="4" height="16" fill="#8D6E63"/>
  <rect x="260" y="290" width="4" height="16" fill="#8D6E63"/>
  <rect x="340" y="290" width="4" height="16" fill="#8D6E63"/>
  <rect x="420" y="290" width="4" height="16" fill="#8D6E63"/>
  <rect x="480" y="290" width="4" height="16" fill="#8D6E63"/>
  <rect x="560" y="290" width="4" height="16" fill="#8D6E63"/>
  <rect x="640" y="290" width="4" height="16" fill="#8D6E63"/>
  <rect x="730" y="290" width="4" height="16" fill="#8D6E63"/>
  <!-- Mailboxes -->
  <rect x="90" y="335" width="6" height="15" fill="#757575"/>
  <rect x="85" y="330" width="16" height="8" fill="#EF5350" rx="2"/>
  <rect x="400" y="335" width="6" height="15" fill="#757575"/>
  <rect x="395" y="330" width="16" height="8" fill="#42A5F5" rx="2"/>
  <rect x="650" y="335" width="6" height="15" fill="#757575"/>
  <rect x="645" y="330" width="16" height="8" fill="#66BB6A" rx="2"/>
  <!-- Trees in yards -->
  <rect x="68" y="260" width="6" height="30" fill="#795548"/>
  <circle cx="71" cy="252" r="18" fill="#388E3C"/>
  <rect x="438" y="270" width="6" height="25" fill="#795548"/>
  <circle cx="441" cy="262" r="16" fill="#43A047"/>
  <rect x="678" y="265" width="6" height="28" fill="#795548"/>
  <circle cx="681" cy="257" r="17" fill="#388E3C"/>
  <!-- Lower area lawn details -->
  <circle cx="100" cy="460" r="3" fill="#FFD54F"/>
  <circle cx="400" cy="480" r="3" fill="#E040FB"/>
  <circle cx="650" cy="450" r="3" fill="#FF7043"/>
  <circle cx="880" cy="470" r="3" fill="#FFD54F"/>
</svg>
