<svg xmlns="http://www.w3.org/2000/svg" viewBox="0 0 960 540">
  <!-- Floor -->
  <rect x="0" y="400" width="960" height="140" fill="#d7ccc8"/>
  <!-- Wall -->
  <rect x="0" y="0" width="960" height="400" fill="#fff8e1"/>
  <!-- Window -->
  <rect x="360" y="30" width="240" height="180" rx="6" fill="#81d4fa"/>
  <rect x="360" y="30" width="240" height="180" rx="6" stroke="#8d6e63" stroke-width="8" fill="none"/>
  <line x1="480" y1="30" x2="480" y2="210" stroke="#8d6e63" stroke-width="4"/>
  <line x1="360" y1="120" x2="600" y2="120" stroke="#8d6e63" stroke-width="4"/>
  <!-- Clouds through window -->
  <ellipse cx="420" cy="80" rx="30" ry="15" fill="white" opacity="0.7"/>
  <ellipse cx="540" cy="90" rx="25" ry="12" fill="white" opacity="0.7"/>
  <!-- Sewing machine table -->
  <rect x="60" y="280" width="200" height="15" rx="4" fill="#8d6e63"/>
  <rect x="80" y="295" width="8" height="105" fill="#6d4c41"/>
  <rect x="232" y="295" width="8" height="105" fill="#6d4c41"/>
  <!-- Sewing machine -->
  <rect x="100" y="240" width="100" height="40" rx="6" fill="#78909c"/>
  <path d="M120 240 Q150 200 180 240" fill="#546e7a"/>
  <rect x="140" y="210" width="30" height="15" rx="4" fill="#90a4ae"/>
  <circle cx="185" cy="260" r="12" fill="#b0bec5"/>
  <circle cx="185" cy="260" r="6" fill="#78909c"/>
  <!-- Thread on machine -->
  <line x1="155" y1="210" x2="170" y2="260" stroke="#e91e63" stroke-width="1.5"/>
  <!-- Mannequin -->
  <circle cx="480" cy="260" r="18" fill="#ffccbc"/>
  <path d="M462 278 Q480 275 498 278 L502 370 Q480 380 458 370Z" fill="#e0e0e0"/>
  <!-- Mannequin stand -->
  <rect x="474" y="370" width="12" height="50" fill="#9e9e9e"/>
  <ellipse cx="480" cy="425" rx="30" ry="8" fill="#757575"/>
  <!-- Dress on mannequin -->
  <path d="M462 290 Q480 285 498 290 L508 355 Q480 370 452 355Z" fill="#f48fb1" opacity="0.7"/>
  <!-- Fabric rolls shelf -->
  <rect x="700" y="120" width="230" height="10" fill="#8d6e63"/>
  <rect x="700" y="250" width="230" height="10" fill="#8d6e63"/>
  <!-- Fabric rolls -->
  <circle cx="730" cy="115" r="20" fill="#e91e63"/>
  <circle cx="730" cy="115" r="10" fill="#f48fb1"/>
  <circle cx="780" cy="115" r="20" fill="#42a5f5"/>
  <circle cx="780" cy="115" r="10" fill="#90caf9"/>
  <circle cx="830" cy="115" r="20" fill="#ffd54f"/>
  <circle cx="830" cy="115" r="10" fill="#fff9c4"/>
  <circle cx="880" cy="115" r="20" fill="#66bb6a"/>
  <circle cx="880" cy="115" r="10" fill="#a5d6a7"/>
  <circle cx="730" cy="245" r="20" fill="#ab47bc"/>
  <circle cx="730" cy="245" r="10" fill="#ce93d8"/>
  <circle cx="780" cy="245" r="20" fill="#ff7043"/>
  <circle cx="780" cy="245" r="10" fill="#ffab91"/>
  <circle cx="830" cy="245" r="20" fill="#26c6da"/>
  <circle cx="830" cy="245" r="10" fill="#80deea"/>
  <!-- Scissors -->
  <path d="M320 350 L360 330 M320 370 L360 350" stroke="#9e9e9e" stroke-width="3"/>
  <circle cx="315" cy="350" r="8" fill="none" stroke="#9e9e9e" stroke-width="2"/>
  <circle cx="315" cy="370" r="8" fill="none" stroke="#9e9e9e" stroke-width="2"/>
  <!-- Pin cushion -->
  <ellipse cx="640" cy="380" rx="25" ry="15" fill="#e91e63"/>
  <line x1="630" y1="380" x2="630" y2="360" stroke="#bdbdbd" stroke-width="1.5"/>
  <circle cx="630" cy="358" r="3" fill="#ffd54f"/>
  <line x1="640" y1="380" x2="640" y2="355" stroke="#bdbdbd" stroke-width="1.5"/>
  <circle cx="640" cy="353" r="3" fill="#42a5f5"/>
  <line x1="650" y1="380" x2="650" y2="362" stroke="#bdbdbd" stroke-width="1.5"/>
  <circle cx="650" cy="360" r="3" fill="#66bb6a"/>
  <!-- Measuring tape -->
  <path d="M580 400 Q600 380 620 400 Q640 420 660 400" stroke="#ffd54f" stroke-width="4" fill="none"/>
</svg>