<svg xmlns="http://www.w3.org/2000/svg" viewBox="0 0 960 540">
  <!-- Floor -->
  <rect x="0" y="440" width="960" height="100" fill="#d7ccc8"/>
  <!-- Wall -->
  <rect x="0" y="0" width="960" height="440" fill="#fce4ec"/>
  <!-- Left shelving unit -->
  <rect x="20" y="30" width="280" height="410" fill="#f8bbd0"/>
  <!-- Shelves -->
  <rect x="25" y="30" width="270" height="8" fill="#e91e63"/>
  <rect x="25" y="130" width="270" height="8" fill="#e91e63"/>
  <rect x="25" y="230" width="270" height="8" fill="#e91e63"/>
  <rect x="25" y="330" width="270" height="8" fill="#e91e63"/>
  <!-- Folded clothes on shelves -->
  <rect x="40" y="100" width="60" height="28" rx="4" fill="#42a5f5"/>
  <rect x="110" y="95" width="60" height="33" rx="4" fill="#ffb74d"/>
  <rect x="180" y="100" width="60" height="28" rx="4" fill="#66bb6a"/>
  <rect x="40" y="200" width="60" height="28" rx="4" fill="#ef5350"/>
  <rect x="110" y="195" width="60" height="33" rx="4" fill="#ab47bc"/>
  <rect x="180" y="200" width="60" height="28" rx="4" fill="#26c6da"/>
  <!-- Shoes shelf -->
  <path d="M50 310 L75 310 Q80 318 80 330 L45 330 Q45 318 50 310Z" fill="#e91e63"/>
  <path d="M120 308 L145 308 Q150 316 150 330 L115 330 Q115 316 120 308Z" fill="#ffd54f"/>
  <path d="M190 310 L215 310 Q220 318 220 330 L185 330 Q185 318 190 310Z" fill="#7c4dff"/>
  <!-- Hanging section center -->
  <rect x="320" y="30" width="320" height="410" fill="#f3e5f5"/>
  <rect x="320" y="30" width="320" height="10" fill="#ce93d8"/>
  <!-- Rod -->
  <rect x="330" y="50" width="300" height="6" rx="3" fill="#bdbdbd"/>
  <!-- Hanging clothes -->
  <path d="M370 56 L370 70 L355 80 M370 70 L385 80" stroke="#9e9e9e" stroke-width="2" fill="none"/>
  <path d="M355 80 Q370 100 385 80 L382 160 Q370 165 358 160Z" fill="#e91e63"/>
  <path d="M420 56 L420 70 L405 80 M420 70 L435 80" stroke="#9e9e9e" stroke-width="2" fill="none"/>
  <path d="M405 80 Q420 100 435 80 L432 150 Q420 155 408 150Z" fill="#42a5f5"/>
  <path d="M470 56 L470 70 L455 80 M470 70 L485 80" stroke="#9e9e9e" stroke-width="2" fill="none"/>
  <path d="M455 80 Q470 100 485 80 L482 170 Q470 175 458 170Z" fill="#ffb74d"/>
  <path d="M520 56 L520 70 L505 80 M520 70 L535 80" stroke="#9e9e9e" stroke-width="2" fill="none"/>
  <path d="M505 80 Q520 100 535 80 L530 155 Q520 160 510 155Z" fill="#ab47bc"/>
  <path d="M570 56 L570 70 L555 80 M570 70 L585 80" stroke="#9e9e9e" stroke-width="2" fill="none"/>
  <path d="M555 80 Q570 100 585 80 L582 145 Q570 150 558 145Z" fill="#66bb6a"/>
  <!-- Drawers bottom center -->
  <rect x="340" y="300" width="280" height="130" rx="6" fill="#e1bee7"/>
  <rect x="345" y="305" width="270" height="38" rx="4" fill="#ce93d8"/>
  <rect x="345" y="348" width="270" height="38" rx="4" fill="#ce93d8"/>
  <rect x="345" y="391" width="270" height="38" rx="4" fill="#ce93d8"/>
  <circle cx="480" cy="324" r="5" fill="#ffd54f"/>
  <circle cx="480" cy="367" r="5" fill="#ffd54f"/>
  <circle cx="480" cy="410" r="5" fill="#ffd54f"/>
  <!-- Right section - bags and accessories -->
  <rect x="660" y="30" width="280" height="410" fill="#f8bbd0"/>
  <rect x="660" y="30" width="280" height="8" fill="#e91e63"/>
  <rect x="660" y="160" width="280" height="8" fill="#e91e63"/>
  <rect x="660" y="290" width="280" height="8" fill="#e91e63"/>
  <!-- Bags -->
  <rect x="680" y="100" width="50" height="55" rx="8" fill="#f06292"/>
  <rect x="750" y="105" width="45" height="50" rx="6" fill="#7c4dff"/>
  <rect x="815" y="100" width="50" height="55" rx="8" fill="#ffd54f"/>
  <!-- Accessories -->
  <circle cx="710" cy="240" r="20" fill="#80deea"/>
  <circle cx="780" cy="235" r="25" fill="#ffab91"/>
  <circle cx="860" cy="240" r="20" fill="#a5d6a7"/>
  <!-- Hat boxes -->
  <ellipse cx="720" cy="370" rx="40" ry="15" fill="#f48fb1"/>
  <rect x="680" y="330" width="80" height="40" rx="6" fill="#f48fb1"/>
  <ellipse cx="720" cy="330" rx="40" ry="15" fill="#f8bbd0"/>
  <!-- Ceiling light -->
  <rect x="440" y="0" width="80" height="10" fill="#ffd54f"/>
  <path d="M450 10 L470 30 L490 30 L510 10Z" fill="#fff9c4"/>
</svg>